<?xml version="1.0" encoding="UTF-8" standalone="no"?>
<!-- Created with Inkscape (http://www.inkscape.org/) -->

<svg
   width="1000.0001"
   height="1000.0001"
   viewBox="0 0 264.58335 264.58335"
   version="1.1"
   id="svg1"
   xml:space="preserve"
   xmlns="http://www.w3.org/2000/svg"
   xmlns:svg="http://www.w3.org/2000/svg"><defs
     id="defs1"><linearGradient
       id="swatch16"><stop
         style="stop-color:#982098;stop-opacity:0;"
         offset="0"
         id="stop16" /></linearGradient><linearGradient
       id="swatch1"><stop
         style="stop-color:#101010;stop-opacity:0.3137255;"
         offset="0"
         id="stop1" /></linearGradient></defs><g
     id="layer1"><ellipse
       style="mix-blend-mode:normal;fill:#da4eda;fill-opacity:1;stroke-width:0.271775"
       id="path1"
       cx="77.307915"
       cy="194.2254"
       rx="13.473938"
       ry="13.139477" /><ellipse
       style="mix-blend-mode:normal;fill:#da4eda;fill-opacity:1;stroke-width:0.271775"
       id="path1-8"
       cx="173.4579"
       cy="195.23965"
       rx="13.473938"
       ry="13.139477" /><rect
       style="fill:#da4eda;fill-opacity:1;stroke-width:0.0968439;stroke-dasharray:none"
       id="rect22"
       width="122.02994"
       height="17.009659"
       x="64.311775"
       y="165.79633"
       ry="8.5048294" /><path
       style="fill:#da4eda;fill-opacity:1;stroke-width:0.0960001;stroke-dasharray:none"
       id="path25"
       d="m 66.936312,177.70031 c -0.01887,-0.29418 -0.01506,-0.58737 -0.04524,-0.88082 -0.05687,-0.3251 -0.113038,-0.64906 -0.136911,-0.97851 -0.02209,-0.31336 -0.02714,-0.62781 -0.02633,-0.94187 0.0013,-0.25139 0.01376,-0.50266 0.0066,-0.75399 -0.0034,-0.27556 -0.0029,-0.55113 -0.0013,-0.8267 0.0081,-0.28884 -0.0021,-0.57757 -0.01103,-0.86625 -0.0069,-0.39456 -0.01299,-0.7899 0.01045,-1.18399 0.0293,-0.37962 0.203579,-0.71034 0.366956,-1.04538 0.177023,-0.30865 0.397116,-0.5918 0.60156,-0.88326 0.173953,-0.22391 0.367159,-0.43057 0.579694,-0.61812 0.244276,-0.22294 0.494945,-0.43079 0.709017,-0.68443 0.202494,-0.23193 0.354978,-0.50017 0.520131,-0.75885 0.200819,-0.2832 0.430803,-0.54589 0.676315,-0.79105 0.296825,-0.34922 0.566409,-0.72101 0.811189,-1.10837 0.153923,-0.28048 0.361092,-0.52546 0.531238,-0.79476 0.159988,-0.30521 0.323061,-0.60846 0.469723,-0.9204 0.129331,-0.24153 0.205353,-0.50719 0.330438,-0.75064 0.02474,-0.0481 0.142308,-0.2402 0.170336,-0.28642 0.303445,-0.51279 0.329044,-1.1479 0.439055,-1.724 0.0528,-0.36596 0.210563,-0.70151 0.307543,-1.05558 0.104828,-0.29305 0.123905,-0.60615 0.14695,-0.91379 0.03419,-0.31897 0.03824,-0.62929 -0.076,-0.93149 -0.163872,-0.31858 -0.446108,-0.54805 -0.69583,-0.79682 -0.191979,-0.23591 -0.370552,-0.4811 -0.536519,-0.73549 -0.109879,-0.20771 -0.251278,-0.38947 -0.377648,-0.58837 -0.111144,-0.27022 -0.222144,-0.54206 -0.304615,-0.82276 -0.07171,-0.24129 -0.12455,-0.48495 -0.150937,-0.73519 -0.0027,-0.0364 -0.0055,-0.0727 -0.0081,-0.10909 0,0 -3.525118,-1.76814 -3.525118,-1.76814 v 0 c 0.0021,0.0399 0.0042,0.0798 0.0063,0.11966 0.02011,0.26739 0.04483,0.53661 0.126823,0.79339 0.03237,0.1466 0.07042,0.288 0.122547,0.42908 0.03708,0.10034 0.08768,0.19548 0.12242,0.29665 0.01778,0.0518 0.02779,0.10588 0.04168,0.15881 0.07806,0.2721 0.0019,0.0507 0.107238,0.26965 0.01884,0.0392 0.02461,0.0851 0.04994,0.12043 0.0181,0.0252 0.05696,0.0296 0.07553,0.0545 0.02291,0.0307 0.02953,0.0707 0.04429,0.1061 0.02262,0.0254 0.04525,0.0508 0.06788,0.0762 0.222184,0.41068 -0.112176,-0.19714 0.139909,0.22586 0.02826,0.0474 0.04618,0.10069 0.07612,0.14706 0.123232,0.19087 0.08448,0.0762 0.223838,0.26352 0.04056,0.0545 0.07143,0.11563 0.10714,0.17345 0.03949,0.0562 0.07508,0.1154 0.118478,0.16867 0.168531,0.20688 0.401227,0.35314 0.576421,0.5531 0.219858,0.23796 0.207933,0.41751 0.191296,0.73183 -0.01458,0.28662 -0.03854,0.57391 -0.131961,0.84746 -0.07188,0.37571 -0.223014,0.73401 -0.246771,1.11885 -0.07223,0.53778 -0.110453,1.10418 -0.425887,1.56551 -0.197868,0.34223 -0.341495,0.70869 -0.504298,1.06823 -0.15529,0.29722 -0.31011,0.5924 -0.48994,0.87557 -0.151302,0.27851 -0.34495,0.53233 -0.492739,0.81304 -0.213222,0.37223 -0.471961,0.71735 -0.763973,1.03172 -0.259916,0.27225 -0.536507,0.53172 -0.742337,0.8498 -0.149717,0.24551 -0.309763,0.4861 -0.493133,0.70781 -0.202485,0.23541 -0.44274,0.43312 -0.67193,0.64166 -0.236712,0.20904 -0.454581,0.43259 -0.62484,0.7007 -0.213757,0.31034 -0.440934,0.61201 -0.630341,0.93769 -0.17943,0.3745 -0.353896,0.74955 -0.422698,1.16304 -0.01177,0.071 -0.02937,0.14121 -0.03536,0.2129 -0.02792,0.33384 0.03565,0.67549 9.8e-5,1.00998 -0.0091,0.2849 -0.01916,0.56985 -0.01106,0.85493 0.0013,0.2748 0.0019,0.54961 -0.0021,0.82439 -0.0081,0.25396 0.0037,0.50798 0.0053,0.762 0.0029,0.32273 -5.29e-4,0.64564 0.01667,0.96808 0.02508,0.33104 0.04736,0.66296 0.117827,0.98827 0.03701,0.27572 0.08575,0.54772 0.04131,0.82677 z" /><path
       style="fill:#da4eda;fill-opacity:1;stroke-width:0.0960001;stroke-dasharray:none"
       id="path26"
       d="m 63.499356,174.43621 c 0.16178,0.19422 0.263753,0.424 0.332394,0.66505 0.02985,0.1987 0.08528,0.39176 0.118559,0.59006 0.04689,0.21228 0.0057,0.43362 0.06548,0.64241 0.02151,0.10192 0.08675,0.17849 0.132043,0.26721 0.02606,0.051 0.04184,0.10685 0.06754,0.15806 0.651668,1.21375 3.094373,1.88715 3.569861,2.14699 1.120296,0.61221 -2.213882,-1.27209 -3.322285,-1.90558 -0.04755,-0.0272 0.09324,0.058 0.14275,0.0814 0.01995,0.019 0.03807,0.0402 0.05987,0.057 0.08741,0.0677 0.04068,0.002 0.12261,0.0906 0.06501,0.07 0.09678,0.13453 0.179687,0.18608 1.024649,0.96891 0.148164,0.14877 3.516505,2.05737 0.02609,0.0148 0.06133,-0.002 0.08959,0.008 0.02339,0.008 0.03668,0.0351 0.0596,0.0447 0.183941,0.0765 -2.65e-4,-0.0529 0.15241,0.0679 -1.104913,-0.63389 -2.209823,-1.26777 -3.314734,-1.90166 0.05639,0.0284 0.139229,0.1071 0.210436,0.0999 0.06338,-0.006 0.107649,-0.1652 0.109239,-0.16854 0.01318,-0.0407 0.06606,-0.19477 0.06269,-0.22885 -0.0054,-0.0545 -0.176051,-0.12958 -0.128707,-0.10207 3.266977,1.89821 4.318458,2.62212 3.185586,1.84565 -0.149852,-0.17946 -0.306316,-0.35257 -0.454564,-0.53344 -0.161634,-0.17146 -0.314704,-0.34917 -0.474904,-0.52211 -0.05778,-0.0684 -0.162218,-0.0907 -0.219593,-0.15875 -0.02249,-0.0267 -0.03199,-0.0624 -0.05266,-0.0905 -0.02331,-0.0317 -0.08841,-0.089 -0.118343,-0.11641 -0.08811,-0.11701 -0.184732,-0.24901 -0.230843,-0.39122 -0.33328,-1.67828 2.564384,0.93106 -3.574714,-2.04988 -0.0074,0.24919 0.03616,0.47266 0.176987,0.67993 0.02713,0.0239 0.0548,0.0472 0.08139,0.0718 0.02604,0.024 0.04795,0.0527 0.07641,0.0738 0.07175,0.0531 0.165058,0.0773 0.21925,0.15547 0.02553,0.0369 0.04059,0.08 0.06088,0.11995 0.110807,0.22456 0.209076,0.45808 0.276444,0.69949 0.827138,1.54839 0.631275,0.68994 3.741431,2.49058 1.176321,0.71601 -0.226788,-0.13881 -3.23768,-1.87307 -0.0457,-0.0263 0.08264,0.0658 0.121102,0.10183 0,0 3.698291,1.42253 3.698291,1.42253 v 0 c -0.12676,-0.0383 -0.02222,10e-4 -0.137936,-0.0666 -3.42093,-2.00739 -2.242246,-1.4557 -3.529504,-2.05485 1.097912,0.63991 2.200254,1.27228 3.293737,1.91974 0.02757,0.0163 -0.06277,-0.0138 -0.09294,-0.0246 -0.02882,-0.0103 -0.06075,-0.0178 -0.08335,-0.0385 -0.02537,-0.0232 -0.03387,-0.06 -0.05461,-0.0875 -0.125627,-0.16606 -0.014,0.0301 -0.118205,-0.17326 -0.02257,-0.0219 -0.05256,-0.0381 -0.06767,-0.0657 -0.02013,-0.0367 -0.02156,-0.081 -0.03454,-0.12077 -0.05539,-0.17009 -0.13675,-0.33096 -0.190469,-0.50187 -0.01722,-0.0378 -0.03894,-0.0738 -0.0517,-0.11335 -0.03685,-0.11412 -0.04381,-0.24796 -0.13984,-0.33724 -0.05117,-0.0476 -0.140936,-0.0417 -0.175157,-0.11513 -0.165378,-0.0688 -0.322159,-0.15034 -0.2969,-0.35739 -4.439626,-2.31015 -3.597947,-3.11091 -3.51346,-1.4861 0.01,0.13062 0.0055,0.27175 0.07545,0.38847 0.01302,0.0217 0.03628,0.0367 0.04744,0.0594 0.01524,0.0311 0.02027,0.0662 0.03041,0.0992 0.0321,0.0656 0.04641,0.11131 0.101666,0.16144 0.02096,0.019 0.05435,0.0231 0.07167,0.0454 0.05703,0.0736 0.06867,0.21127 0.18534,0.26797 0.139793,0.0748 0.146971,0.10037 0.254543,0.20528 0.08698,0.0848 0.184078,0.15766 0.248023,0.26555 0.198591,0.17824 -0.01587,-0.0251 0.16147,0.17819 0.0487,0.0558 0.114342,0.0958 0.160552,0.15371 0.02402,0.0301 0.03732,0.0676 0.06008,0.0987 0.02257,0.0308 0.05028,0.0575 0.07542,0.0862 0.721805,1.28322 0.03317,0.10419 3.516921,2.17231 0.223446,0.13265 0.27019,0.0435 0.429943,-0.14179 0.133792,-0.24977 0.20656,-0.35752 -0.06593,-0.5142 -1.156312,-0.66487 -2.311892,-1.33101 -3.467839,-1.99651 -0.23187,-0.06 0.04838,0.0214 -0.159567,-0.0662 -0.02439,-0.0103 -0.05324,-0.008 -0.07701,-0.0192 -0.02281,-0.0112 -0.08149,-0.0603 -0.05949,-0.0476 3.460218,1.99669 4.476329,2.46662 3.248644,1.89572 -0.02021,-0.0195 -0.03651,-0.0442 -0.06063,-0.0586 -0.106177,-0.0634 -0.05243,0.021 -0.145211,-0.0674 -0.08382,-0.0798 -0.01995,-0.0594 -0.09994,-0.14288 -0.0185,-0.0193 -0.04373,-0.0307 -0.06559,-0.0461 -0.0549,-0.0765 -0.04489,-0.0801 -0.125466,-0.12685 -1.153152,-0.66945 -2.309942,-1.33261 -3.463464,-2.00141 -0.05792,-0.0336 4.376293,2.27459 3.170885,1.88067 -0.0069,-0.006 -0.09221,-0.0726 -0.09852,-0.0836 -0.06261,-0.10857 0.01622,-0.0524 -0.06047,-0.14452 -0.01347,-0.0162 -0.03762,-0.0217 -0.04961,-0.039 -0.01537,-0.0222 -0.01979,-0.0502 -0.02969,-0.0753 -0.02593,-0.0385 -0.06628,-0.0664 -0.08951,-0.10652 -0.07286,-0.1259 -0.0075,-0.29988 -0.03484,-0.43565 -0.01254,-0.13919 -0.02225,-0.28602 -0.06269,-0.42065 -0.0087,-0.0288 -0.02672,-0.0544 -0.03356,-0.0837 -0.0094,-0.0403 -0.0098,-0.0822 -0.01476,-0.12329 -0.04765,-0.27475 -0.129717,-0.53921 -0.254632,-0.78942 z" /><path
       style="fill:#da4eda;fill-opacity:1;stroke-width:0.0960001;stroke-dasharray:none"
       id="path27"
       d="m 73.04861,168.1927 c 0.05847,-0.25417 0.169257,-0.49082 0.320953,-0.70201 0.134903,-0.21859 0.325112,-0.39041 0.499782,-0.57556 0.222981,-0.11445 0.389771,-0.29987 0.571008,-0.4669 0.214151,-0.2514 0.426077,-0.50436 0.644022,-0.75292 0.208082,-0.21307 0.375029,-0.4588 0.544875,-0.70184 0.219896,-0.38415 0.447429,-0.76621 0.623478,-1.17288 0.147137,-0.30577 0.246475,-0.62107 0.293111,-0.95613 0.03932,-0.26275 0.02833,-0.52818 0.0368,-0.79252 0.05741,-0.36058 0.119031,-0.72105 0.167347,-1.08338 0.05534,-0.42938 0.07564,-0.86223 0.09975,-1.29422 0.01492,-0.34107 0.0044,-0.68231 0.0035,-1.02344 0.004,-0.29708 0.0063,-0.59415 0.01138,-0.89122 5.29e-4,-0.0388 0.0013,-0.0776 0.0019,-0.11646 0,0 -3.51269,-1.78961 -3.51269,-1.78961 v 0 c 5.29e-4,0.0395 0.0013,0.079 0.0019,0.11846 0.0054,0.30139 0.0084,0.60279 0.01339,0.90419 2.6e-5,0.3378 -0.0076,0.67558 -0.003,1.01345 0.005,0.4227 -0.0031,0.84592 -0.05572,1.26598 -0.05288,0.36449 -0.12941,0.72436 -0.217167,1.08202 -0.03214,0.26063 -0.01445,0.52236 -0.02781,0.78433 -0.02432,0.30266 -0.09173,0.59552 -0.213297,0.87525 -0.148616,0.38436 -0.352906,0.7493 -0.606295,1.07474 -0.171011,0.22657 -0.313039,0.47523 -0.512252,0.68026 -0.208936,0.23896 -0.415126,0.48242 -0.642057,0.70406 -0.188835,0.17284 -0.384331,0.3336 -0.586089,0.49119 -0.187647,0.19965 -0.38118,0.39744 -0.524965,0.63263 -0.164843,0.25244 -0.293383,0.51938 -0.407995,0.79767 z" /><path
       style="fill:#da4eda;fill-opacity:1;stroke-width:0.0960001;stroke-dasharray:none"
       id="path28"
       d="m 72.861021,166.80649 c -0.05176,-0.73698 0.158403,-1.4628 0.388723,-2.15419 0.362876,-0.92248 0.812509,-1.80544 1.274276,-2.68122 0.313483,-0.60724 0.61478,-1.21979 0.992259,-1.79076 0.283747,-0.38341 0.387569,-0.82429 0.448016,-1.28704 0.209743,-1.4619 0.124822,-0.51608 -3.416998,-2.18091 -0.110572,-0.052 -0.131649,0.20604 -0.191048,0.3128 -0.07998,0.14377 -0.146881,0.29455 -0.226849,0.43832 -0.206449,0.37116 -0.430511,0.73224 -0.645377,1.0986 -0.504785,0.86611 -1.016608,1.72845 -1.537951,2.58471 -0.238784,0.39055 -0.504076,0.79032 -0.897726,1.03863 -0.386067,0.14142 -0.474932,0.30399 -0.569082,0.69973 -0.05601,0.31394 -0.09048,0.63582 -0.194561,0.9391 -0.0679,0.19784 -0.140597,0.33003 -0.233114,0.51818 -0.138366,0.24844 -0.274444,0.49817 -0.404587,0.75103 -0.01548,0.0301 -0.160335,0.32546 -0.198038,0.37402 -0.01834,0.0236 -0.0491,0.0342 -0.07366,0.0512 1.187339,0.57119 2.324452,1.2614 3.562019,1.71357 0.121436,0.0444 0.0999,-0.23862 0.155859,-0.35517 0.07505,-0.15633 0.155469,-0.31007 0.236997,-0.46312 0.271098,-0.50892 0.576853,-0.99433 0.880566,-1.48402 0.518419,-0.77739 0.966239,-1.59739 1.433216,-2.40563 0.325797,-0.54733 0.553254,-1.14474 0.785513,-1.73573 0.219215,-0.58075 0.23899,-1.21616 0.279437,-1.83003 -0.0029,-0.53006 0.0693,-1.04628 0.190011,-1.56065 0.072,-0.31707 0.115554,-0.63978 0.142015,-0.96359 0.0019,-0.15044 0.04056,-0.31172 -0.01373,-0.4579 -0.01069,-0.0288 -0.0992,-0.1559 -0.108569,-0.1698 -0.195779,-0.2355 -0.404429,-0.46164 -0.616699,-0.68242 -0.02879,-0.0371 -0.05641,-0.0751 -0.08637,-0.11131 -0.02831,-0.0342 -0.06194,-0.0639 -0.08835,-0.0996 -0.107793,-0.14551 -0.16737,-0.31799 -0.261347,-0.47118 -0.620477,-1.27361 -3.121723,-3.314 -3.667006,-1.76104 -0.06052,0.17237 -0.03774,0.65054 -0.04192,0.84237 -0.0154,0.40282 -0.01463,0.81415 0.106677,1.20321 0.07101,0.22775 0.16047,0.3964 0.26235,0.61031 0.343932,0.60086 0.739865,1.16985 1.114174,1.75196 0.427855,0.66533 0.557924,1.44064 0.665009,2.20918 0.07062,0.76804 0.203499,1.52823 0.308562,2.29188 0.05797,0.96674 0.274299,1.90483 0.517012,2.83865 0.0707,0.24342 0.130516,0.47276 0.222052,0.70834 0.563655,1.45069 2.370931,1.74213 3.749032,2.39995 0.09025,0.0431 0.166214,-0.11126 0.249319,-0.16688 0.38295,-0.28558 0.71083,-0.64217 0.966539,-1.04506 0.235786,-0.33378 0.344273,-0.71663 0.458139,-1.10304 0.219885,-0.99094 0.37769,-1.99424 0.541258,-2.99563 0.206767,-1.19961 0.425241,-2.40405 0.827718,-3.55539 0.04511,-0.0837 0.07172,-0.18048 0.135337,-0.25118 0.01693,-0.0188 0.04906,0.0127 0.07359,0.019 -1.141548,-0.57634 -2.235732,-1.25807 -3.424643,-1.72901 -0.117528,-0.0466 0.01966,0.25253 0.01622,0.37889 -0.01117,0.40992 -0.08443,0.96433 -0.128979,1.35818 -0.268584,1.65851 -0.614944,3.3037 -1.036418,4.9298 -0.211854,0.70089 -0.390027,1.41378 -0.616585,2.1103 -0.0929,0.28562 -0.0078,0.25767 -0.166764,0.27113 1.17852,0.55182 2.298211,1.25251 3.535564,1.65548 0.153048,0.0498 0.05913,-0.31648 0.09246,-0.47395 0.04702,-0.22216 0.09829,-0.4434 0.14856,-0.66484 0.193813,-0.8538 0.416973,-1.69431 0.657133,-2.53613 0.36994,-1.12711 0.67464,-2.2784 1.11547,-3.38085 0.152945,0.009 0.09912,-0.46842 0.286702,-0.48764 0.05349,-0.005 0.08526,0.18074 0.03702,0.15699 -1.118862,-0.55084 -2.158748,-1.25988 -3.299737,-1.76328 -0.116171,-0.0513 0.09366,0.23714 0.121475,0.36103 0.04652,0.20721 0.06721,0.41939 0.10082,0.62908 0.09219,1.27194 -0.04855,2.54291 -0.267576,3.79445 -0.174006,0.71628 -0.295265,1.44563 -0.495303,2.15533 -0.02135,0.0598 -0.03064,0.12543 -0.06405,0.17943 -0.007,0.0113 -0.04564,-0.0273 -0.03383,-0.0212 1.15538,0.59963 2.270384,1.28389 3.464642,1.80179 0.09146,0.0397 -0.0069,-0.19967 5.29e-4,-0.29908 0.03312,-0.44077 0.08406,-0.63655 0.168071,-1.0789 0.229031,-1.02196 0.450546,-2.04464 0.621993,-3.078 0.01749,-0.11957 0.03318,-0.2394 0.05242,-0.35869 0.01447,-0.0898 0.05697,-0.36219 0.104217,-0.46641 0.0082,-0.0182 0.0654,-0.0274 0.04753,-0.0362 -3.777409,-1.85902 -4.485254,-2.42053 -3.284164,-1.50383 0.365281,0.66569 0.522631,1.41779 0.638093,2.16143 0.04722,0.35792 0.06451,0.71905 0.06404,1.07983 0.0075,0.15811 -0.01897,0.31853 -0.0035,0.47643 0.0043,0.0442 0.0401,0.18561 0.05044,0.22841 0.04321,0.0583 0.04532,0.13659 0.08303,0.19709 0.01712,0.0274 0.04765,0.044 0.06884,0.0684 0.07073,0.0816 0.121674,0.16155 0.203528,0.2338 0.02572,0.0228 0.04881,0.0489 0.07716,0.0682 0.02977,0.0204 0.06549,0.0307 0.0959,0.05 0.03144,0.02 0.05932,0.0451 0.08898,0.0677 1.158716,0.67078 2.309547,1.35537 3.476151,2.01234 0.03983,0.0224 0.09105,0.0106 0.135443,0.0215 0.04325,0.0106 0.08435,0.0286 0.126526,0.0429 0.04337,0.0117 0.08854,0.0182 0.130112,0.0353 0.0898,0.0368 0.168021,0.0975 0.255032,0.14052 0.14103,0.0697 0.271092,0.13425 0.402857,0.22127 -1.082136,-0.62619 -2.162326,-1.25574 -3.246406,-1.87855 -0.03411,-0.0196 0.06462,0.0449 0.09601,0.0686 0.09772,0.0738 0.06987,0.065 0.174701,0.12591 1.154113,0.6704 2.305381,1.34576 3.464777,2.00698 0.03038,0.0173 0.06762,0.0179 0.101426,0.0269 0.181641,0.12868 0.434287,0.13937 0.652087,0.16572 0.361439,0.0134 0.702153,0.15441 1.050141,0.24234 0.33155,0.17608 0.708581,0.19917 1.064993,0.29668 0.03694,0.0169 0.07716,0.0279 0.110829,0.0505 0.01992,0.0135 0.06524,0.07 0.04624,0.0553 -1.053177,-0.82212 -2.106353,-1.64424 -3.15953,-2.46635 -0.01884,-0.006 -0.03983,-0.006 -0.05652,-0.0166 -0.02672,-0.0166 -0.04719,-0.0416 -0.07079,-0.0624 -0.03731,-0.0219 -0.07462,-0.0438 -0.111927,-0.0657 -0.04911,-0.0184 -0.09916,-0.0345 -0.14732,-0.0552 -0.174336,-0.0752 -0.121314,-0.0646 -0.288036,-0.15381 -0.04619,-0.0247 -0.186581,-0.0951 -0.141218,-0.0689 2.893912,1.67088 4.361066,2.46962 3.125808,1.79615 -0.217408,-0.14508 -0.410823,-0.31907 -0.61731,-0.4787 -1.160616,-0.66843 -2.321231,-1.33686 -3.481847,-2.00529 -0.03659,-0.0214 -0.146484,-0.0854 -0.10976,-0.0642 1.084908,0.62577 4.324027,2.52941 3.254311,1.87802 -1.143325,-0.69622 -2.326965,-1.32442 -3.475188,-2.01252 -1.041127,-0.62393 4.205989,2.42513 3.152627,1.82209 -1.240047,-0.83232 -0.196633,-0.13616 -3.62708,-2.10138 -0.242946,-0.13918 -0.502166,-0.20964 -0.772282,-0.27392 -0.522872,-0.12529 -1.043398,-0.25158 -1.576218,-0.32668 -0.479915,-0.0519 -0.799428,-0.10998 -1.234999,0.12863 -0.299264,0.26652 -0.449087,0.63396 -0.581988,1.00231 -0.09889,0.3288 -0.249033,0.63229 -0.417734,0.92971 -0.182661,0.28818 -0.08776,0.15315 -0.282319,0.40674 0,0 3.344109,1.97415 3.344109,1.97415 v 0 c 0.185269,-0.27781 0.08893,-0.13598 0.289422,-0.42519 0.217339,-0.30555 0.401579,-0.63301 0.504079,-0.99635 0.07387,-0.26328 0.159655,-0.58109 0.420447,-0.71379 0.343955,-0.10196 0.70649,-0.029 1.054309,0.0183 0.526759,0.0942 1.047075,0.22417 1.558991,0.37998 0.204697,0.0764 0.394242,0.1636 0.585846,0.26873 0.05313,0.0291 0.210923,0.11947 0.158466,0.0891 -3.212758,-1.85902 -4.316005,-2.42716 -3.091455,-1.79385 1.171649,0.88222 0.03697,0.0342 3.575931,2.08931 1.084371,0.62971 -4.338867,-2.51645 -3.255182,-1.88556 1.158137,0.67423 2.318324,1.34494 3.478536,2.01559 0.03765,0.0218 0.152614,0.0834 0.114988,0.0616 -1.087306,-0.63031 -2.176063,-1.2581 -3.264096,-1.88716 0.14737,0.0683 0.305004,0.15556 0.425339,0.26615 0.03635,0.0334 0.0649,0.0748 0.102129,0.10727 0.0351,0.0306 0.07591,0.0539 0.113863,0.0808 1.178497,1.09575 2.751675,1.65507 4.168757,2.39183 0.206258,0.10055 0.05528,0.038 0.253124,0.0957 1.430054,0.41744 -1.871715,-2.41364 -3.189004,-2.4307 -0.361188,-0.0738 -0.704808,-0.19246 -1.056492,-0.2995 -0.356177,-0.0953 -0.712301,-0.18003 -1.077116,-0.234 -0.127627,-0.0358 -0.265518,-0.067 -0.384427,-0.12789 -0.173498,-0.0888 0.0208,-0.0163 -0.146507,-0.0921 -0.02755,-0.0125 -0.05699,-0.0203 -0.08548,-0.0304 -1.123167,-0.77122 -0.05169,-0.0326 3.208861,1.85372 0.031,0.0179 -0.05932,-0.0403 -0.09043,-0.058 -0.1905,-0.10868 -0.0083,0.0166 -0.200014,-0.12415 -1.153298,-0.68191 -2.310789,-1.3567 -3.466182,-2.03505 -0.272672,-0.13126 -0.545365,-0.26161 -0.836073,-0.34786 -0.0422,-0.0157 -0.08615,-0.0274 -0.1266,-0.0472 -0.03769,-0.0184 -0.142894,-0.088 -0.106609,-0.0669 1.090205,0.63295 2.178955,1.26839 3.26843,1.90259 -0.03061,-0.0195 -0.06351,-0.0357 -0.09182,-0.0584 -0.02905,-0.0232 -0.04831,-0.058 -0.07927,-0.0786 -0.02688,-0.0179 -0.06037,-0.0231 -0.09055,-0.0347 -0.07803,-0.0484 -0.175521,-0.0796 -0.238828,-0.14838 -0.02307,-0.0251 -0.03135,-0.0631 -0.05824,-0.084 -0.176586,-0.13729 0.0055,0.10913 -0.128358,-0.0978 -0.03756,-0.0366 -0.126259,-0.15299 -0.138499,-0.20266 -0.0271,-0.10996 0.0217,-0.23879 -0.0032,-0.3498 -0.01045,-0.39354 -0.03934,-0.78563 -0.115626,-1.17279 -0.139999,-0.76648 -0.352354,-1.51497 -0.555112,-2.26659 -0.267859,-1.60057 0.0056,-0.45333 -3.676422,-2.04234 -0.05221,-0.0225 -0.04569,0.10483 -0.05872,0.16018 -0.06895,0.29289 -0.04433,0.6015 -0.0818,0.89782 -0.09919,1.04065 -0.288382,2.06976 -0.538681,3.08469 -0.11684,0.45987 -0.140213,0.59168 -0.286975,1.0263 -0.0354,0.10482 -0.208759,0.24694 -0.118009,0.31024 2.567744,1.79091 3.22213,3.30608 3.550272,1.67964 0.153037,-0.74517 0.245618,-1.50023 0.38831,-2.24771 0.180856,-1.28761 0.273987,-2.585 0.273182,-3.88567 0.005,-0.20274 0.01206,-0.40544 0.01506,-0.60822 0.0021,-0.13635 0.109696,-0.32814 -3.7e-5,-0.4091 -1.108517,-0.81785 -2.873592,-3.11123 -3.63619,-1.964 -0.08578,0.12904 -0.194471,0.47963 -0.236815,0.60187 -0.21182,0.69368 -0.434809,1.38699 -0.608799,2.09135 -0.05365,0.21718 -0.09736,0.4367 -0.14965,0.65421 -0.06072,0.25254 -0.126252,0.50391 -0.189379,0.75586 -0.278508,1.04463 -0.560874,2.09206 -0.97247,3.09414 -0.05736,0.13964 -0.306949,0.31876 -0.188177,0.41194 1.044284,0.81933 2.256935,1.39769 3.385404,2.09654 -0.137649,-0.10638 -0.06777,-0.0251 -0.01344,-0.34619 0.124664,-0.73677 0.3116,-1.4607 0.464146,-2.1918 0.362553,-1.64734 0.70459,-3.29838 1.056566,-4.94789 0.116408,-0.52444 0.170698,-0.79002 0.297248,-1.2902 0.03306,-0.13069 0.213694,-0.31017 0.105389,-0.39043 -2.960481,-2.19383 -3.169409,-3.32951 -3.588626,-1.59914 -0.272581,1.20554 -0.566668,2.40704 -0.776353,3.62556 -0.188659,0.96352 -0.36426,1.93461 -0.682022,2.86615 -0.114588,0.34756 -0.25822,0.68454 -0.440108,1.00266 -0.197948,0.3386 -0.457478,0.66503 -0.821642,0.8302 -1.351899,-0.23852 -0.197991,-0.0512 3.05857,1.87383 0.06014,0.0356 -0.125473,-0.0657 -0.175705,-0.11423 -0.24907,-0.24072 -0.340442,-0.60595 -0.473104,-0.91084 -0.281067,-0.89822 -0.463931,-1.82376 -0.509844,-2.76579 -0.03463,-0.38231 -0.07494,-0.76259 -0.135183,-1.14188 -0.03921,-0.24688 -0.09638,-0.49072 -0.134335,-0.73779 -0.02169,-0.14118 -0.03456,-0.28357 -0.05184,-0.42536 -0.0969,-0.79649 -0.158803,-1.61452 -0.547428,-2.3348 -0.355841,-0.58367 -0.750374,-1.14161 -1.118558,-1.71708 -0.08537,-0.15608 -0.209611,-0.3739 -0.280249,-0.53897 -0.147484,-0.34465 -0.184037,-0.72235 -0.164119,-1.09369 0.01503,-0.28813 0.008,-0.26451 0.04271,-0.53518 0.0054,-0.0419 0.06189,-0.12986 0.01992,-0.12513 -0.05328,0.006 -0.04292,0.15804 -0.09036,0.13307 -2.837738,-1.49384 -4.374393,-2.80901 -3.301164,-1.89552 0.04747,0.0654 0.111517,0.11858 0.15376,0.18749 0.104955,0.17119 0.124656,0.39605 0.284806,0.53252 0.167169,0.2476 0.3917,0.45175 0.593066,0.67252 0.03986,0.0405 0.06935,0.0918 0.11434,0.12649 0.0177,0.0136 0.04228,0.015 0.06198,0.0256 0.08855,0.0475 0.07986,0.13146 0.07586,0.22211 -0.0031,0.31239 -0.02019,0.62467 -0.07579,0.93274 -0.08738,0.53999 -0.193924,1.08138 -0.179258,1.63115 -0.01566,0.57932 -0.03942,1.16604 -0.234654,1.71806 -0.206134,0.58328 -0.419854,1.16749 -0.709056,1.71559 -0.427025,0.82435 -0.856036,1.64689 -1.35159,2.43313 -0.294931,0.49575 -0.586727,0.99408 -0.900668,1.47819 -0.09423,0.1453 -0.189492,0.29005 -0.289909,0.43115 -0.07808,0.1097 -0.352351,0.2392 -0.245333,0.32093 1.047454,0.79985 2.247387,1.3773 3.37108,2.06594 -0.02426,0.0125 -0.07156,0.0649 -0.07276,0.0376 -0.0027,-0.0616 0.04353,-0.11552 0.06683,-0.17266 0.136406,-0.33448 0.302763,-0.65624 0.477576,-0.97201 0.250838,-0.47914 0.450614,-0.96972 0.527505,-1.50905 0.0075,-0.0332 0.02646,-0.15785 0.05899,-0.20213 0.09148,-0.12451 0.287076,-0.14003 0.381773,-0.26336 0.376142,-0.34235 0.661408,-0.76858 0.89277,-1.21973 0.467522,-0.88307 0.895123,-1.78726 1.40684,-2.64664 0.300942,-0.47209 0.368263,-0.6073 0.714277,-1.03737 0.09633,-0.11973 0.193826,-0.23977 0.306007,-0.34479 0.03073,-0.0288 0.151021,-0.027 0.115903,-0.0502 -3.337642,-2.20651 -3.287112,-3.33751 -3.29334,-1.88901 -0.02868,0.41128 -0.108172,0.80199 -0.328351,1.15866 -0.331192,0.61042 -0.678577,1.21293 -0.970708,1.8435 -0.401902,0.91984 -0.801495,1.84054 -1.238348,2.74455 -0.135062,0.34307 -0.236683,0.577 -0.339371,0.9282 -0.119996,0.4104 -0.167185,0.83868 -0.297849,1.24618 z" /><path
       style="fill:#da4eda;fill-opacity:1;stroke-width:0.0960001;stroke-dasharray:none"
       id="path29"
       d="m 82.41535,166.07208 c 0.0699,-0.42819 0.241776,-0.82281 0.474612,-1.18583 0.1626,-0.24775 0.342342,-0.48253 0.502457,-0.73198 0.0565,-0.15725 0.175702,-0.27588 0.244292,-0.42567 0.01228,-0.0268 0.09692,-0.24792 0.10934,-0.28019 0.111193,-0.28636 0.225369,-0.5739 0.300069,-0.87235 0.06517,-0.26577 0.209751,-0.49275 0.354967,-0.71993 0.18967,-0.26432 0.385578,-0.53095 0.622004,-0.75595 0.268804,-0.20894 0.430861,-0.43257 0.538327,-0.75455 0.09321,-0.34808 0.08468,-0.71266 0.08192,-1.07008 0.0057,-0.35569 0.01889,-0.71032 -0.0353,-1.06277 -0.09458,-0.35464 -0.213989,-0.70115 -0.339749,-1.04566 -0.09168,-0.29132 -0.22367,-0.56311 -0.414943,-0.80123 -0.17531,-0.29942 -0.33555,-0.60864 -0.490244,-0.91938 -0.125799,-0.30201 -0.318315,-0.56854 -0.485325,-0.84823 -0.165103,-0.26896 -0.291415,-0.54914 -0.361834,-0.85681 -0.100089,-0.43309 -0.06845,-0.8769 0.0114,-1.30991 0.04851,-0.14166 0.093,-0.36649 0.243552,-0.44708 0.01937,-0.0104 0.168658,-0.0312 0.177625,-0.0326 0.266451,-0.0234 0.527531,-0.0876 0.789829,-0.13832 0.357052,-0.1076 0.716518,-0.20053 1.060071,-0.34782 0.263975,-0.13974 0.540391,-0.24576 0.838357,-0.27485 0.269163,-0.0781 0.536702,-0.15014 0.815861,-0.18241 0.370027,-0.008 0.736671,-0.0456 1.102087,-0.10381 0.302221,-0.0422 0.152969,-0.0163 0.447826,-0.077 0,0 -3.192301,-2.23082 -3.192301,-2.23082 v 0 c -0.277646,0.0457 -0.134742,0.0245 -0.428823,0.0627 -0.384747,0.0356 -0.771782,0.0336 -1.154449,0.0885 -0.273995,0.0623 -0.542205,0.14874 -0.82055,0.19116 -0.298296,0.085 -0.571063,0.2284 -0.855051,0.35072 -0.335857,0.12279 -0.68507,0.20796 -1.035883,0.27596 -0.278964,0.0553 -0.564317,0.0916 -0.832805,0.18887 -0.372902,0.19993 -0.495838,0.44773 -0.584121,0.85498 -0.07641,0.46826 -0.153723,0.94183 -0.110829,1.41754 0.05403,0.33696 0.126765,0.67593 0.311732,0.96863 0.147029,0.2898 0.327917,0.55858 0.503365,0.83111 0.14501,0.31952 0.317362,0.6255 0.460457,0.94564 0.02133,0.0486 0.03597,0.10072 0.064,0.14578 0.02328,0.0374 0.05954,0.065 0.08805,0.0986 0.127389,0.15011 0.23453,0.31515 0.307203,0.4989 0.06574,0.17553 0.149746,0.34812 0.209232,0.52546 0.0099,0.0295 0.0752,0.30092 0.08562,0.33693 0.01413,0.0488 0.03196,0.0964 0.04795,0.14464 0.1333,0.30754 0.09369,0.65167 0.103495,0.97965 -0.0063,0.31855 -0.0019,0.64014 -0.05542,0.95516 -0.07146,0.26971 -0.234736,0.41267 -0.435401,0.59879 -0.235694,0.25894 -0.463315,0.5266 -0.6536,0.82136 -0.06919,0.0998 -0.14581,0.19463 -0.210796,0.29725 -0.104932,0.16571 -0.160274,0.3573 -0.231334,0.53814 -0.05463,0.27955 -0.150492,0.54889 -0.258733,0.81184 -0.02254,0.0474 -0.04509,0.0948 -0.06763,0.14223 -0.01246,0.0326 -0.02252,0.0661 -0.03735,0.0977 -0.06626,0.14082 -0.175588,0.26028 -0.227851,0.40909 -0.15607,0.25617 -0.34091,0.49227 -0.47875,0.75924 -0.213831,0.398 -0.399021,0.81001 -0.553739,1.23466 z" /><path
       style="fill:#da4eda;fill-opacity:1;stroke-width:0.0960001;stroke-dasharray:none"
       id="path30"
       d="m 80.987068,161.91124 c 0.443905,-0.79784 0.907516,-1.58442 1.381289,-2.36509 0.334317,-0.59655 0.666261,-1.23424 0.753872,-1.92381 0.01238,-0.0976 0.009,-0.19645 0.01352,-0.29468 -0.0078,-0.3856 -0.225996,-0.6801 -0.418295,-0.99506 -0.149328,-0.24457 -0.11198,-0.18253 -0.239236,-0.42182 -0.2299,-0.43418 -0.264015,-0.92532 -0.279699,-1.40686 0.0026,-0.19186 -0.0081,-0.38367 -0.0016,-0.57551 0.0016,-0.0463 1.11e-4,-0.0932 0.0089,-0.13863 0.0021,-0.0103 0.03169,-0.0177 0.02225,-0.0224 -1.178584,-0.58081 -2.365915,-1.1437 -3.548875,-1.71555 0.184002,0.51707 0.378799,1.03051 0.592606,1.53602 0.112117,0.27686 0.252098,0.54041 0.38454,0.80758 0.02003,0.0404 0.0182,0.10102 0.05798,0.12227 1.17072,0.62509 2.366253,1.20257 3.54938,1.80385 0.248335,-0.37978 0.233193,-0.8405 0.30368,-1.27343 0.04126,-0.35464 0.131329,-0.69522 0.256792,-1.02848 0.108222,-0.23768 0.162557,-0.49091 0.188656,-0.74933 0.02495,-0.27921 0.01458,-0.55985 0.0159,-0.83982 0.007,-0.31439 0.169799,-0.58438 0.306721,-0.85702 0.138671,-0.25501 0.255103,-0.5293 0.451842,-0.74621 0.163888,-0.19584 0.326983,-0.38746 0.535665,-0.537 0.274955,-0.17997 0.591524,-0.21495 0.910884,-0.2438 0.624358,-0.052 1.25087,-0.0139 1.874035,-0.0757 0.127262,-0.0183 0.254524,-0.0366 0.381786,-0.0549 0,0 -3.107343,-2.20517 -3.107343,-2.20517 v 0 c -0.128675,0.0104 -0.25735,0.0207 -0.386025,0.031 -0.645091,0.0221 -1.291645,0.005 -1.935728,0.0553 -0.382217,0.0536 -0.752832,0.15124 -1.060646,0.39707 -0.220363,0.17892 -0.412266,0.38883 -0.585772,0.61339 -0.193556,0.25694 -0.347977,0.53968 -0.482113,0.83167 -0.156403,0.32748 -0.351435,0.64366 -0.402778,1.00857 0.0016,0.26819 -0.003,0.53629 -0.01156,0.80433 -0.01492,0.22696 -0.04185,0.45111 -0.130519,0.66323 -0.126021,0.3605 -0.21395,0.73256 -0.255519,1.11236 -0.04838,0.30198 -0.07494,0.63181 -0.172137,0.91304 1.133017,0.62545 2.268966,1.24561 3.399051,1.87634 0.03642,0.0203 -0.08448,-0.0183 -0.116924,-0.0445 -0.06901,-0.0557 -0.175192,-0.25416 -0.213532,-0.31786 -0.186963,-0.31069 -0.0801,-0.11267 -0.252519,-0.46318 -0.214571,-0.45566 -0.419147,-0.91993 -0.516556,-1.41697 -1.191276,-0.60782 -2.37671,-1.22722 -3.573828,-1.82346 -0.01712,-0.009 0.01773,0.0347 0.02035,0.0536 0.0069,0.0495 0.0063,0.0999 0.0079,0.14984 0.01437,0.45496 -0.0091,-0.0889 0.0047,0.39079 0.0021,0.07 0.0066,0.13988 0.01,0.20981 0.02944,0.52287 0.04182,1.05886 0.210103,1.55936 0.120404,0.24011 0.247812,0.46791 0.393317,0.69385 0.08413,0.13064 0.183522,0.25153 0.261032,0.38619 0.03514,0.061 0.05846,0.12818 0.0877,0.19226 0.01262,0.079 0.03618,0.15706 0.03784,0.23706 0.0021,0.0986 -0.01323,0.19695 -0.02682,0.29462 -0.07696,0.55275 -0.293992,1.07041 -0.549545,1.56265 -0.445675,0.79473 -0.941446,1.55974 -1.553343,2.23854 z" /><path
       style="fill:#da4eda;fill-opacity:1;stroke-width:0.0960001;stroke-dasharray:none"
       id="path31"
       d="m 84.161899,167.64771 c -0.02601,-0.0133 -0.05426,-0.0229 -0.07804,-0.0399 -0.03187,-0.0228 -0.05976,-0.0507 -0.08754,-0.0784 -0.133442,-0.13262 -0.216998,-0.28958 -0.297611,-0.45723 -0.0802,-0.15381 -0.128828,-0.31934 -0.191037,-0.48012 -0.0063,-0.0134 -0.0149,-0.026 -0.01894,-0.0403 -0.02529,-0.0897 0.0051,-0.0362 -0.02474,-0.11268 -0.02302,-0.0591 -0.03322,-0.0534 -0.04014,-0.12271 -0.02289,-0.0403 -0.03024,-0.0872 -0.0476,-0.12931 -0.0087,-0.0211 -0.02299,-0.0395 -0.03157,-0.0607 -0.01476,-0.0364 -0.03297,-0.10961 -0.04329,-0.14858 -0.04266,-0.13447 -0.06274,-0.27473 -0.09625,-0.41152 -0.03225,-0.1268 -0.03422,-0.25871 -0.06513,-0.3856 -0.0052,-0.0593 -0.02593,-0.11479 -0.04062,-0.17154 -0.01196,-0.0462 -0.01225,-0.0717 -0.04261,-0.1085 -0.01757,-0.0538 -0.06438,-0.0861 -0.09306,-0.13368 -0.01963,-0.0714 -0.02146,-0.147 -0.02156,-0.22074 0.02125,-0.0133 -0.0132,-0.0593 -0.0066,-0.0774 0.0044,-0.012 0.01445,-0.0212 0.0204,-0.0325 0.02765,-0.0369 0.04788,-0.0825 0.08378,-0.11293 0.0298,-0.0253 0.06741,-0.0457 0.09868,-0.0696 0.0677,-0.0543 0.15348,-0.0974 0.20747,-0.16739 0.01746,-0.0226 0.03001,-0.0486 0.04502,-0.073 0.04171,-0.0806 0.100537,-0.14935 0.147617,-0.22668 0,0 -3.390713,-1.96655 -3.390713,-1.96655 v 0 c -0.03732,0.0624 -0.06968,0.12916 -0.121218,0.18159 -0.07781,0.0486 -0.145818,0.11342 -0.220893,0.16617 -0.08818,0.0779 -0.164156,0.1667 -0.233058,0.262 -0.07825,0.0891 -0.145783,0.20524 -0.143008,0.32713 1.09e-4,0.0877 -0.0049,0.17524 -0.0071,0.26289 -0.0079,0.0828 -0.01527,0.18104 0.03468,0.25216 0.01058,0.0318 0.01259,0.0505 0.03668,0.0752 0.0093,0.01 0.02408,0.0129 0.03258,0.0232 0.01077,0.013 0.0145,0.0305 0.02368,0.0447 0.07461,0.11501 -0.01598,-0.0476 0.05423,0.0835 0.0061,0.0195 0.01225,0.039 0.01836,0.0585 0.0088,0.0168 0.02013,0.0325 0.02627,0.0504 0.007,0.0206 0.0075,0.0429 0.01275,0.064 0.0041,0.0162 0.01288,0.0313 0.01532,0.0478 0.0065,0.0444 -0.0044,0.0902 0.0062,0.13438 0.02217,0.15102 0.08807,0.29055 0.105076,0.44217 0.0057,0.0237 0.02979,0.12035 0.03301,0.14648 0.0029,0.0237 -5.29e-4,0.048 0.0028,0.0716 0.0019,0.0131 0.0098,0.0246 0.01283,0.0375 0.0072,0.0305 0.0062,0.0626 0.01754,0.0923 0.0428,0.0583 0.02233,0.0791 0.04381,0.14258 0.0054,0.0159 0.01487,0.0301 0.02233,0.0451 0.0092,0.0127 0.02204,0.0235 0.02745,0.0382 0.0083,0.0224 0.0084,0.0471 0.01259,0.0706 0.01812,0.0506 0.03327,0.0983 0.0587,0.14617 0.01445,0.0272 0.03427,0.0513 0.04857,0.0786 0.05726,0.10922 0.09534,0.22852 0.160272,0.33405 0.03994,0.0798 0.0909,0.17901 0.12656,0.26059 0.03724,0.0852 0.06309,0.16235 0.09875,0.24768 0.01214,0.0291 0.0278,0.0567 0.03874,0.0862 0.0085,0.0229 0.01286,0.047 0.01932,0.0705 z" /><path
       style="fill:#da4eda;fill-opacity:1;stroke-width:0.0960001;stroke-dasharray:none"
       id="path32"
       d="m 80.265071,161.73238 c -0.0078,0.0787 -0.03779,0.16081 -0.08628,0.22433 -0.01384,0.0181 -0.07039,0.0339 -0.05088,0.0456 3.411818,2.06114 2.701935,3.09335 3.473688,1.90374 0.09283,-0.1407 0.203981,-0.26728 0.315127,-0.39343 0.07067,-0.0985 0.144454,-0.19479 0.214958,-0.29342 0.02548,-0.0288 0.04037,-0.07 0.07234,-0.0933 0.0069,-0.005 0.01606,-0.006 0.02307,-0.0112 0.01595,-0.0111 0.05105,-0.0445 0.06542,-0.0577 0.07596,-0.0878 0.124703,-0.1957 0.182705,-0.29584 0.06755,-0.0862 0.1221,-0.18011 0.175628,-0.27519 0.03407,-0.0639 0.06841,-0.1235 0.108786,-0.18414 0.02999,-0.0587 0.05859,-0.11679 0.10064,-0.16806 0.01884,-0.023 0.04177,-0.0423 0.06167,-0.0643 0.01143,-0.015 0.02204,-0.0306 0.03427,-0.0449 0.0064,-0.008 0.01566,-0.0125 0.02156,-0.0205 0.0038,-0.005 0.03294,-0.059 0.04738,-0.0712 0.0026,-0.002 0.0066,-7.9e-4 0.0099,-0.001 0.0074,-0.008 0.01479,-0.0163 0.02217,-0.0245 0.04816,-0.0696 0.06628,-0.15489 0.114157,-0.22438 0.04922,-0.0266 0.08951,-0.12296 0.118296,-0.17317 0.02676,-0.0419 0.046,-0.0876 0.06652,-0.13267 0.0028,-0.006 0.0099,-0.033 0.01791,-0.0222 0.0064,-0.007 0.01418,-0.0138 0.01924,-0.0221 0.02043,-0.0336 0.03471,-0.0735 0.05116,-0.10901 0.02133,-0.0461 0.048,-0.0884 0.07458,-0.1316 0.07229,-0.0764 0.09167,-0.18231 0.128138,-0.27682 0.05034,-0.0882 0.06251,-0.17267 0.08273,-0.2689 0.024,-0.1145 0.03655,-0.23093 0.03657,-0.34785 0.0052,-0.10185 0.01005,-0.20346 0.01212,-0.3054 0.0043,-0.0845 0.0038,-0.16886 1.3e-4,-0.25331 -0.0078,-0.0929 0.0026,-0.18597 5.29e-4,-0.27896 5.29e-4,-0.0932 0.0076,-0.18541 -0.0024,-0.27825 -0.0079,-0.0771 -0.02458,-0.15285 -0.02946,-0.23017 -0.0094,-0.10175 -0.0011,-0.2034 -0.0021,-0.30509 -0.0067,-0.0409 0.0074,-0.0827 0.0024,-0.12361 -0.0019,-0.0138 -0.01045,-0.0259 -0.01479,-0.0391 -0.01416,-0.043 -0.03166,-0.0813 -0.04701,-0.12389 -0.01357,-0.0407 -0.03448,-0.08 -0.05696,-0.11661 -0.02635,-0.0429 -0.03467,-0.0289 -0.05737,-0.0834 -0.0077,-0.008 -0.0182,-0.0144 -0.02302,-0.0245 -0.0066,-0.014 -0.0053,-0.0306 -0.01005,-0.0453 -0.0117,-0.036 -0.0393,-0.0666 -0.06301,-0.0952 -0.03092,-0.0862 0.0087,-0.13884 -0.04591,-0.2222 0.01056,-0.0533 -0.0449,-0.0794 -0.05651,-0.12284 -0.0093,-0.0347 -0.0053,-0.0716 -0.0082,-0.10731 -0.0039,-0.0134 -0.0078,-0.0268 -0.01164,-0.0402 -0.0063,-0.01 -0.01482,-0.0189 -0.01894,-0.03 -0.0074,-0.0199 -0.0081,-0.0418 -0.0154,-0.0618 -0.006,-0.0165 -0.01744,-0.0307 -0.02429,-0.0469 -0.01733,-0.041 -0.02896,-0.0841 -0.0434,-0.12621 -0.0088,-0.0177 -0.01863,-0.0349 -0.02651,-0.0529 -0.0094,-0.0215 -0.01516,-0.0445 -0.02524,-0.0657 -0.01865,-0.0392 -0.03641,-0.0549 -0.06037,-0.0906 -0.03507,-0.0523 -0.03661,-0.0591 -0.06512,-0.11444 -0.07549,-0.0799 -0.13512,-0.17353 -0.210222,-0.25334 -0.0088,-0.0175 -0.01767,-0.0349 -0.02651,-0.0524 -0.0087,-0.0129 -0.01886,-0.0249 -0.02609,-0.0386 -0.0094,-0.0178 -0.01386,-0.0379 -0.02342,-0.0556 -0.03303,-0.0612 -0.01955,-0.0138 -0.05788,-0.0731 -0.0094,-0.0145 -0.01479,-0.0311 -0.02217,-0.0467 -0.0404,-0.1101 0.0093,-0.006 -0.04917,-0.0683 -0.07518,-0.0795 0.03689,0.005 -0.05125,-0.062 -0.0093,-0.007 -0.02299,-0.009 -0.02942,-0.0192 -0.01016,-0.0155 -0.01185,-0.0351 -0.01781,-0.0526 -0.0086,-0.009 -0.05794,-0.062 -0.06511,-0.0717 -0.01013,-0.0137 -0.01439,-0.0318 -0.02669,-0.0435 -0.04117,-0.0394 -0.04553,0.01 -0.08691,-0.0657 -0.0072,-0.007 -0.01675,-0.0111 -0.02156,-0.0196 -0.0066,-0.0115 -0.005,-0.0264 -0.01132,-0.038 -0.02895,-0.0528 -0.02588,-0.0247 -0.06674,-0.0611 -0.03939,-0.035 -0.04038,-0.0523 -0.06347,-0.10189 -0.01204,-0.0187 -0.02513,-0.0367 -0.03614,-0.056 -0.03064,-0.0537 -0.02477,-0.0603 -0.05981,-0.10991 -0.02683,-0.0379 -0.05938,-0.073 -0.08674,-0.11101 -0.0132,-0.0181 -0.04961,-0.0695 -0.0642,-0.0833 -0.01217,-0.0115 -0.02895,-0.0172 -0.04133,-0.0285 -0.02418,-0.022 -0.04282,-0.0494 -0.06501,-0.0734 0,0 -3.593431,-1.5846 -3.593431,-1.5846 v 0 c 0.09892,0.22062 -0.04789,-0.10113 0.05448,0.10535 0.0094,0.019 0.01294,0.0408 0.02424,0.0588 0.01624,0.0258 0.04926,0.038 0.06516,0.0641 0.0284,0.0305 0.0382,0.0397 0.06432,0.0732 0.0117,0.0149 0.02088,0.0319 0.0338,0.0458 0.02381,0.0256 0.06158,0.0465 0.08469,0.0728 0.01294,0.0147 0.02188,0.0325 0.0328,0.0488 0.0113,0.012 0.0258,0.0217 0.03391,0.0361 0.0218,0.0387 0.01474,0.0714 0.0307,0.11171 0.02687,0.0678 0.0095,-0.005 0.04779,0.0416 0.0094,0.0114 0.01148,0.0272 0.01723,0.0408 0.009,0.01 0.02085,0.0173 0.02692,0.029 0.01582,0.0306 0.01556,0.0797 0.03988,0.10729 0.0096,0.0109 0.02756,0.0106 0.03927,0.0193 0.0085,0.006 0.05101,0.0559 0.05867,0.0647 0.01228,0.003 0.02813,-8e-4 0.03687,0.008 0.01183,0.0123 0.01037,0.0326 0.01749,0.0481 0.006,0.0132 0.01228,0.0267 0.0218,0.0376 0.0083,0.01 0.02294,0.0123 0.0306,0.0223 0.0502,0.0657 -0.01384,0.0346 0.0616,0.0584 0.01146,0.009 0.02522,0.0166 0.03436,0.0283 0.05455,0.0699 -0.0079,0.0245 0.05371,0.0877 0.01064,0.0109 0.02702,0.0155 0.03686,0.0271 0.02394,0.0284 0.02843,0.0708 0.06271,0.0922 0.0075,0.0201 0.01265,0.0411 0.02241,0.0602 0.0085,0.0165 0.02204,0.0299 0.03185,0.0457 0.04199,0.0673 0.08132,0.13712 0.133615,0.19733 0.04486,0.0339 0.04601,0.0291 0.07803,0.0761 0.03027,0.0444 0.0254,0.0555 0.06283,0.0949 0.01177,0.0124 0.02889,0.0192 0.03982,0.0324 0.01241,0.0149 0.01937,0.0337 0.02907,0.0505 0.02919,0.0331 0.03848,0.0377 0.05466,0.0803 0.0065,0.017 0.0066,0.036 0.01392,0.0527 0.0047,0.0106 0.01749,0.0166 0.02141,0.0276 0.0605,0.16954 -0.04066,-0.0456 0.02275,0.0834 0.08595,0.0743 -0.0044,0.12937 0.06172,0.20893 0.0034,0.0259 0.0047,0.0519 0.01585,0.0761 0.02614,0.0566 0.06787,0.008 0.0544,0.11219 -0.0026,0.0486 -0.0034,0.0943 0.01085,0.14154 0.0038,0.0126 0.0099,0.0245 0.01492,0.0367 0.0073,0.008 0.01815,0.0149 0.02201,0.0254 0.0059,0.0162 0.0041,0.0342 0.0061,0.0513 0.02334,0.0423 0.0223,0.0806 0.04469,0.1211 0.0061,0.011 0.01643,0.019 0.02297,0.0297 0.03834,0.0628 -0.0032,0.0182 0.04454,0.0629 0.06341,0.0828 -0.02201,-0.0337 0.03805,0.0675 0.0058,0.01 0.01609,0.0162 0.02217,0.0257 0.0067,0.0106 0.0066,0.0258 0.0159,0.0343 0.008,0.007 0.02223,0.003 0.03117,0.009 0.0089,0.006 0.01315,0.017 0.01974,0.0255 0.0066,0.0251 0.01926,0.0487 0.02305,0.0744 0.0095,0.0644 -0.01196,0.13152 -0.0033,0.19625 -0.0013,0.0892 -0.01175,0.1784 0.0053,0.26703 0.0039,0.0236 0.0082,0.055 0.01535,0.0782 0.0028,0.009 0.0092,0.0166 0.01077,0.0258 0.0074,0.0416 -0.0026,0.0863 0.0021,0.12817 -0.0021,0.0932 0.0083,0.18651 5.29e-4,0.2797 -0.0038,0.0847 -0.0037,0.16928 7.94e-4,0.25395 0.0021,0.10113 0.0072,0.20208 0.0084,0.30324 -0.0056,0.0923 -0.0024,0.18555 -0.01857,0.27696 -0.01238,0.0579 -0.0046,0.0288 -0.02357,0.0874 -0.0097,0.0415 -0.0055,0.0871 -0.02918,0.12573 -0.02996,0.0772 -0.04368,0.15754 -0.09194,0.22647 -0.03809,0.0705 -0.08045,0.13877 -0.136731,0.19497 -0.02304,0.0343 -0.04325,0.0616 -0.06154,0.0983 -0.01416,0.0284 -0.01532,0.0536 -0.02809,0.0808 -0.0041,0.009 -0.0094,0.017 -0.01408,0.0254 -0.04127,0.0639 -0.07862,0.12862 -0.129506,0.18608 -0.02384,0.0467 -0.05426,0.11963 -0.08051,0.15392 -0.04521,0.057 -0.08072,0.12041 -0.119269,0.18189 -0.06171,0.0851 -0.126693,0.16772 -0.184531,0.25556 -0.05018,0.0706 -0.101338,0.14134 -0.129434,0.2239 -0.04498,0.0869 -0.07017,0.18275 -0.136517,0.25806 -0.05033,0.0698 -0.09472,0.14487 -0.159086,0.20324 -0.07656,0.0745 -0.147897,0.15545 -0.198392,0.25024 -0.05376,0.0977 -0.125074,0.18318 -0.183441,0.27799 -0.07919,0.1264 -0.158975,0.2578 -0.281141,0.34739 -1.301293,0.35609 -0.08219,0.0113 3.295837,2.05548 0.01148,0.007 -0.02133,-0.0218 -0.01963,-0.0351 0.0092,-0.0728 0.09978,-0.14907 0.147154,-0.19749 z" /><path
       style="fill:#da4eda;fill-opacity:1;stroke-width:0.0960001;stroke-dasharray:none"
       id="path33"
       d="m 77.598629,160.19551 c -0.275503,-1.34326 -0.318302,-2.72168 -0.359257,-4.08828 -0.0021,-1.13118 0.231939,-2.23302 0.539668,-3.3147 0.188045,-0.49888 0.405988,-1.43863 0.882777,-1.76268 0.04651,-0.0316 0.108342,-0.0302 0.162513,-0.0453 0.795459,1.18352 -0.04667,-0.11685 -3.156577,-1.64266 -0.08846,-0.0434 0.104661,0.16815 0.141544,0.25953 0.162951,0.40373 0.218067,0.85462 0.286282,1.28046 0.103129,1.03509 0.215066,2.08984 0.09543,3.12732 -0.136165,0.71662 -0.441415,1.40672 -0.83094,2.02181 -0.0069,0.008 -0.201541,0.30856 -0.318365,0.20541 -0.05586,-0.0493 -0.13717,-0.24553 -0.07058,-0.21209 1.094494,0.54948 2.087533,1.29732 3.20961,1.78803 0.134527,0.0588 -0.09867,-0.28188 -0.101272,-0.42869 -0.0042,-0.23393 0.05421,-0.46478 0.08132,-0.69717 0.557673,-1.87576 1.523359,-3.58937 2.443919,-5.30433 0.238559,-0.39478 0.481028,-0.80462 0.840351,-1.10478 0.06818,-0.057 0.137954,-0.1174 0.220983,-0.14902 0.05715,-0.0218 0.237132,0.0243 0.183409,-0.005 -1.07278,-0.58371 -2.174203,-1.11316 -3.261305,-1.66974 0.06297,0.10691 0.14395,0.20509 0.188913,0.32073 0.352308,0.90609 0.193789,2.0759 0.03115,3.00599 -0.186611,1.08546 -0.810178,1.96632 -1.388526,2.86973 -0.446897,0.68422 -0.980358,1.30627 -1.421331,1.99353 -0.06462,0.0943 -0.09986,0.21791 -0.193865,0.283 -0.03473,0.024 -0.134573,-0.10073 -0.09686,-0.0817 1.110615,0.56049 2.165482,1.24061 3.318544,1.70758 0.135173,0.0548 -0.102833,-0.27422 -0.132056,-0.4171 -0.109911,-0.53739 -0.08563,-0.81154 -0.09371,-1.36908 -0.01961,-1.6776 0.407525,-3.30009 0.737886,-4.93018 0.01386,-0.16038 0.0459,-0.32022 0.04162,-0.48115 -0.04023,-1.51448 -3.432239,-2.35778 -3.613817,-2.4492 -0.08264,-0.0416 -0.989259,0.58684 -1.098963,0.65762 -0.799512,0.54607 -1.57475,1.12483 -2.327849,1.73298 -0.630859,0.43973 -1.042752,1.07627 -1.444413,1.71548 -0.249973,0.22456 -0.363398,1.03407 -0.604086,1.20842 -0.03597,0.0261 -0.08548,0.0241 -0.128223,0.0362 -0.05596,-0.0232 -0.361738,-0.14921 -0.386151,-0.16392 -0.07945,-0.0479 -0.301072,-0.21523 -0.219604,-0.17088 1.033465,0.56254 2.028568,1.19608 3.078583,1.7271 0.12505,0.0632 -0.1973,-0.20025 -0.28126,-0.31244 -0.09208,-0.12304 -0.163261,-0.26042 -0.244891,-0.39063 -0.450172,-0.86134 -0.548288,-1.82362 -0.607869,-2.77729 0.01609,-0.78906 -0.11411,-1.55216 -0.391322,-2.28904 -0.487513,-1.3927 -0.127381,-0.47879 -3.658983,-1.86125 -0.08632,-0.0338 -0.06918,0.17243 -0.09373,0.26182 -0.06932,0.25235 -0.0811,0.5238 -0.102576,0.78307 -0.02577,0.50509 -0.02934,1.01096 -0.03151,1.51659 -0.01799,0.47078 0.03148,0.93569 0.120076,1.39718 0.09401,0.37332 0.322442,0.70262 0.605385,0.95981 0.23165,0.19174 0.371417,0.46962 0.618741,0.64125 0.299051,0.34655 0.615667,0.67739 0.922507,1.01704 0.281284,0.33334 0.355719,0.75247 0.397867,1.17288 -0.003,0.36544 0.04825,0.72086 0.115007,1.0786 0.06998,0.38431 0.07979,0.77529 0.08737,1.16473 0.0033,0.43343 0.0065,0.86686 0.0058,1.30031 -0.0016,0.22364 -0.0016,0.44724 -1.6e-5,0.67087 0,0 3.512992,1.79028 3.512992,1.79028 v 0 c 0.0019,-0.22341 0.0024,-0.44679 0.0011,-0.6702 1.24e-4,-0.435 0.0059,-0.86999 -2.65e-4,-1.30497 -0.0051,-0.4042 -0.0021,-0.81019 -0.05011,-1.21212 -0.05222,-0.35283 -0.167609,-0.69118 -0.139565,-1.05244 -0.02806,-0.4777 -0.08487,-0.95654 -0.304795,-1.38967 -0.268449,-0.37415 -0.637312,-0.65218 -0.891633,-1.03884 -0.161083,-0.24612 -0.0055,-0.0637 -0.216905,-0.19691 -0.168585,-0.10624 -0.268391,-0.32017 -0.396521,-0.46606 -0.366979,-0.36071 0.130657,0.11224 -0.264033,-0.21116 -0.207494,-0.17001 -0.04945,-0.0784 -0.225858,-0.28688 -0.290608,-0.34339 0.03677,0.15539 -0.218176,-0.26016 -0.131244,-0.4234 -0.178649,-0.8709 -0.163102,-1.31322 -0.0047,-0.49807 -0.01286,-0.99658 0.01074,-1.49432 0.01408,-0.23343 0.03134,-0.46241 0.073,-0.6928 0.006,-0.0328 0.05002,-0.0813 0.02106,-0.0979 -3.151376,-1.80682 -4.736706,-2.19107 -3.316955,-1.83613 0.383781,0.66037 0.514999,1.4197 0.504889,2.17764 0.05597,0.99668 0.12909,2.00409 0.532976,2.9318 0.861809,1.80181 1.440397,1.4722 4.057127,3.02294 0.265938,0.1576 0.591108,0.13348 0.860861,0.0173 0.06968,-0.0574 0.148217,-0.10559 0.209026,-0.17236 0.313778,-0.34451 0.286764,-0.88669 0.581247,-1.24823 0.375267,-0.60518 0.788406,-1.18643 1.368981,-1.61372 0.726686,-0.61239 1.493131,-1.17739 2.292062,-1.69223 0.141935,-0.0832 0.525907,-0.33085 0.716015,-0.36646 0.07205,-0.0135 0.27804,0.0771 0.216805,0.0368 -1.02547,-0.67485 -2.082744,-1.30008 -3.124115,-1.95013 0.05884,0.0652 0.149394,0.11208 0.176506,0.19561 0.04648,0.1432 0.02212,0.3003 0.03317,0.45045 -0.232251,1.66801 -0.733134,3.29569 -0.750893,4.99102 -0.03387,0.88148 -0.04346,0.58265 6.7e-5,1.40352 0.0089,0.16767 -0.103254,0.40291 0.03177,0.50271 2.122223,1.56851 2.95211,3.27091 3.933368,1.67746 0.452016,-0.6808 0.971867,-1.31445 1.404892,-2.00887 0.596747,-0.94964 1.226804,-1.88739 1.429605,-3.01656 0.227512,-1.18764 0.316894,-2.4271 0.01304,-3.61061 -1.20867,-0.69093 -2.381332,-1.44905 -3.626009,-2.07279 -0.08347,-0.0418 -0.170913,0.0779 -0.247094,0.13189 -0.495927,0.35133 -0.764456,0.94691 -1.052055,1.45696 -0.846439,1.79351 -1.780879,3.54885 -2.49968,5.39993 -0.05959,0.25243 -0.13952,0.50092 -0.178774,0.7573 -0.02851,0.18623 -0.1696,0.44559 -0.02363,0.56472 1.073319,0.87598 2.290905,1.56255 3.486904,2.26178 0.07883,0.0461 0.183054,-0.0285 0.265364,-0.068 0.203398,-0.0977 0.278048,-0.23715 0.41203,-0.40878 0.397865,-0.67418 0.733708,-1.40845 0.876006,-2.18135 0.02521,-0.1655 0.0653,-0.32939 0.07561,-0.49648 0.01008,-0.16333 -0.0096,-0.32715 -0.01471,-0.49072 -0.02312,-0.74591 -0.04806,-1.4923 -0.111863,-2.23606 -0.0535,-0.45128 -0.125833,-0.88581 -0.218374,-1.33018 -0.02498,-0.11997 0.03046,-0.29066 -0.06995,-0.36093 -3.297899,-2.30806 -2.245725,-2.60504 -3.770595,-2.07327 -0.666256,0.51164 -0.880108,1.34382 -1.133346,2.11012 -0.327903,1.12463 -0.575159,2.26486 -0.553082,3.44477 0.05584,1.36271 0.105413,2.72684 0.227769,4.08555 z" /><rect
       style="fill:#da4eda;fill-opacity:1;stroke-width:0.0960001;stroke-dasharray:none"
       id="rect33"
       width="19.111969"
       height="79.888031"
       x="67.769318"
       y="68.825279" /><path
       style="fill:#da4eda;fill-opacity:1;stroke-width:0.0960001;stroke-dasharray:none"
       id="path34"
       d="m 78.13926,154.65596 c -0.720333,-1.21806 -1.115179,-2.59757 -1.634506,-3.90827 -0.426522,-0.96084 -0.95676,-1.87646 -1.487768,-2.78363 -0.702974,-1.38779 -4.187375,-3.72088 -3.919138,-1.46727 0.05404,0.32558 -0.06508,0.56971 -0.348229,0.72976 -0.617645,0.11699 -0.915937,0.54639 -1.141825,1.09254 -0.14601,0.59278 -0.347559,1.17209 -0.462801,1.7724 -0.02172,0.20651 -0.02114,0.74778 0.194765,0.87863 3.393789,2.05671 2.234359,1.85509 3.823994,2.08987 0.530619,0.0985 0.838692,-0.29546 1.178107,-0.63542 0.416367,-0.41702 0.306197,-0.30738 0.747716,-0.6979 0.882274,-0.65812 1.937972,-0.96685 2.979898,-1.27059 1.10829,-0.30399 2.25629,-0.37878 3.39883,-0.42497 1.017648,-0.0795 1.998512,-0.36304 2.982174,-0.61886 0.696156,-0.19456 1.410198,-0.28305 2.129756,-0.32106 0.340984,0.0168 0.694187,-0.0563 1.034574,-0.0172 0.284133,0.0327 0.588901,0.1512 0.858456,0.24133 0.624528,0.14451 1.297908,0.318 1.9427,0.18681 0.15384,-0.0313 0.299477,-0.0943 0.449218,-0.14149 0.687668,-0.25876 1.389491,-0.47199 2.094391,-0.67708 0.540375,-0.14699 1.104728,-0.16113 1.66124,-0.17423 0.651451,-0.008 1.302919,-0.0127 1.954413,-0.0101 0.823698,0.004 1.647389,-0.005 2.471084,-0.002 0.691457,0.0304 1.355061,0.0391 2.010181,-0.202 0.0811,-0.0469 0.16226,-0.0938 0.24339,-0.14071 0,0 -3.293963,-2.15956 -3.293963,-2.15956 v 0 c -0.06626,0.0298 -0.132522,0.0597 -0.198784,0.0895 -0.624416,0.16464 -1.268857,0.11402 -1.909312,0.12499 -0.828144,0.002 -1.656271,-0.008 -2.484414,-0.008 -0.660924,2.7e-4 -1.322319,-0.0158 -1.982907,0.01 -0.57844,0.0321 -1.162955,0.0724 -1.715907,0.25957 -0.686258,0.22078 -1.366396,0.45723 -2.051587,0.68038 -0.138097,0.0239 -0.274728,0.059 -0.414293,0.0718 -0.639368,0.059 -1.274111,-0.13784 -1.882764,-0.30154 -0.670674,-0.16663 -1.280144,-0.17003 -1.968138,-0.11034 -0.729303,0.0564 -1.445106,0.19285 -2.148157,0.39701 -0.960686,0.24408 -1.916348,0.52988 -2.914404,0.56881 -1.162391,0.0582 -2.32565,0.17602 -3.447013,0.50539 -1.091327,0.3277 -2.188374,0.67376 -3.088907,1.4018 -0.276902,0.24705 -0.957884,0.96727 -1.309822,1.04348 -0.126752,0.0274 -0.341654,-0.0406 -0.453229,-0.0671 -1.364787,-0.55767 -0.02775,-0.0232 2.969072,1.79156 0.05145,0.0311 -0.11975,-0.0254 -0.171503,-0.0561 -0.164002,-0.0971 -0.198551,-0.29479 -0.212198,-0.46537 0.06382,-0.58097 0.310504,-1.1203 0.410339,-1.69524 0.247439,-0.61262 0.494787,-0.62023 1.056127,-0.88649 0.339953,-0.28222 0.580845,-0.64454 0.555133,-1.10369 -0.0088,-0.0594 -0.01497,-0.11924 -0.02646,-0.17818 -0.06106,-0.31315 -0.09083,0.0912 -0.147402,0.0597 -2.974227,-1.65518 -4.139137,-2.86904 -3.015663,-1.73237 0.286356,0.42479 0.512043,0.86121 0.759838,1.30815 0.2667,0.48103 0.598983,0.92629 0.80654,1.43972 0.296577,0.68193 0.568024,1.37307 0.826995,2.0703 0.179319,0.48278 0.327663,0.97673 0.508537,1.45892 0.05016,0.13371 0.114829,0.26152 0.172244,0.39227 z" /><path
       style="fill:#da4eda;fill-opacity:1;stroke-width:0.0960001;stroke-dasharray:none"
       d="M 68.038609,148.5 C 50.455597,69.185326 67.65637,70.523165 67.65637,70.523165 L 50.073358,68.994207 Z"
       id="path35" /><path
       id="path36"
       style="fill:#da4eda;fill-opacity:1;stroke-width:0.0960001;stroke-dasharray:none"
       d="m 69.376644,69.56733 -14.907617,2.867008 11.777575,68.852642 c 0.0012,5.9e-4 0.0025,0.001 0.0036,0.002 0.05011,0.0315 0.07235,0.0831 0.08682,0.13798 0.0094,0.0426 0.01227,0.0863 0.01447,0.12971 -0.0015,0.0253 0.0056,0.0475 0.01499,0.0703 0.01696,0.04 0.02489,0.0828 0.03049,0.12557 0.0047,0.0391 0.0057,0.0785 0.0067,0.11782 0.0073,0.026 0.01692,0.0513 0.02532,0.077 0.0086,0.0373 0.02296,0.0725 0.03411,0.10904 0.0123,0.0415 0.02247,0.0835 0.02997,0.12609 0.0068,0.0408 0.02002,0.0799 0.02842,0.12041 0.01089,0.0409 0.01974,0.0822 0.02584,0.12402 0.0056,0.0408 0.0071,0.0819 0.0083,0.12299 8e-4,0.034 -1.65e-4,0.0681 0.0041,0.1018 0.0043,0.038 0.015,0.0752 0.02635,0.11162 0.01559,0.0508 0.02335,0.10348 0.02945,0.15606 0.0046,0.042 0.0066,0.0839 0.0078,0.1261 -0.0012,0.0318 0.0077,0.0623 0.01447,0.093 0.0081,0.0403 0.02351,0.0784 0.03359,0.11834 0.0085,0.0437 0.01749,0.0878 0.02429,0.13178 0.0023,0.0347 0.01521,0.0668 0.02687,0.0992 0.0094,0.0361 0.0223,0.0697 0.03566,0.10438 0.01487,0.0424 0.02654,0.0861 0.03514,0.13023 0.0058,0.0405 0.0116,0.0807 0.0186,0.12092 0.0069,0.0357 0.0144,0.0714 0.0217,0.10697 0.01048,0.0511 0.01617,0.10261 0.02067,0.15451 -3.6e-4,0.0335 0.01217,0.0647 0.02067,0.0966 0.01023,0.0391 0.01414,0.0792 0.01654,0.11937 2e-4,0.0424 0.0042,0.0845 0.0083,0.12661 0.0038,0.0165 0.0072,0.0331 0.01085,0.0496 z" /><path
       id="path37"
       style="fill:#da4eda;fill-opacity:1;stroke-width:0.0960001;stroke-dasharray:none"
       d="m 66.359257,126.7411 c -0.03391,-0.002 -0.08791,0.0188 -0.0677,0.0305 0.03343,0.0193 0.0677,0.0373 0.101286,0.0563 -0.0032,-0.0182 -0.0072,-0.0706 -0.0098,-0.076 -0.0034,-0.007 -0.01247,-0.0102 -0.02377,-0.0108 z m 0.03359,0.0868 c 0.005,0.0287 0.01041,0.0708 0.01602,0.11989 -0.02114,-0.005 -0.04184,-0.0123 -0.06305,-0.0176 -0.184634,-0.0455 0.0048,0.38037 0.0078,0.5705 0.0042,0.27378 0.0093,0.54736 0.01395,0.82114 0.0071,1.67775 0.04545,3.35559 0.104387,5.03225 5.25e-4,0.0397 0.0027,0.0792 0.0036,0.11886 0.0053,0.50287 0.01257,1.00606 0.0072,1.50895 -0.0058,0.5789 1.57e-4,1.15792 -0.0047,1.73685 -0.0072,0.51107 -0.01006,1.02251 -0.04392,1.53272 -0.04413,0.64018 -0.128248,1.27735 -0.149862,1.91823 -0.0082,0.37498 -0.01307,0.75015 -0.02584,1.12499 0.0441,0.0318 0.06494,0.0801 0.07855,0.13178 0.0094,0.0426 0.01227,0.0863 0.01447,0.12971 -0.0015,0.0253 0.0056,0.0475 0.01499,0.0703 0.01696,0.04 0.02489,0.0828 0.03049,0.12557 0.0047,0.0391 0.0057,0.0785 0.0067,0.11782 0.0073,0.026 0.01692,0.0513 0.02532,0.077 0.0086,0.0373 0.02296,0.0725 0.03411,0.10904 0.0123,0.0415 0.02247,0.0835 0.02997,0.12609 0.0068,0.0408 0.02002,0.0799 0.02842,0.12041 0.01089,0.0409 0.01974,0.0822 0.02584,0.12402 0.0056,0.0408 0.0071,0.0819 0.0083,0.12299 8e-4,0.034 -9.5e-5,0.0681 0.0041,0.1018 0.0043,0.038 0.015,0.0752 0.02635,0.11162 0.01559,0.0508 0.02335,0.1035 0.02945,0.15606 0.0046,0.042 0.0066,0.0839 0.0078,0.1261 -0.0012,0.0318 0.0077,0.0623 0.01447,0.093 0.0081,0.0403 0.02351,0.0784 0.03359,0.11834 0.0085,0.0437 0.01749,0.0878 0.02429,0.13178 0.0023,0.0347 0.01521,0.0668 0.02687,0.0992 0.0094,0.0361 0.0223,0.0697 0.03566,0.10438 0.01487,0.0424 0.02654,0.0861 0.03514,0.13023 0.0058,0.0405 0.0116,0.0807 0.0186,0.12092 0.0069,0.0357 0.0144,0.0714 0.0217,0.10697 0.01048,0.0511 0.01617,0.10261 0.02067,0.15451 -3.6e-4,0.0335 0.01217,0.0647 0.02067,0.0966 0.01023,0.0391 0.01414,0.0792 0.01654,0.11937 2e-4,0.0424 0.0042,0.0845 0.0083,0.12661 0.01169,0.0504 0.02271,0.10083 0.03101,0.15193 0.0083,0.0424 0.0071,0.086 0.01292,0.12867 0.0022,0.006 0.0046,0.012 0.0067,0.0181 0.02279,0.0234 0.04366,0.0486 0.06718,0.0713 0.02235,0.33314 0.01606,0.66795 0.06459,0.99891 0.07658,0.34416 0.101977,0.69608 0.17415,1.04076 0.08596,0.3744 0.112361,0.75665 0.259416,1.11414 0.189254,0.36705 0.433224,0.70382 0.63872,1.0635 0.361016,0.57914 0.777442,1.11484 1.217497,1.63505 0.330076,0.38018 0.164476,0.1997 0.494543,0.5426 l 3.620968,1.48931 c -0.357801,-0.31163 -0.181598,-0.14356 -0.526583,-0.50746 -0.421621,-0.51201 -0.852569,-1.00828 -1.206644,-1.57096 -0.223761,-0.32885 -0.357846,-0.71902 -0.639238,-1.00873 -0.05006,-0.0985 -0.117677,-0.18813 -0.160714,-0.2899 -0.09967,-0.23568 -0.05777,-0.50748 -0.136425,-0.74931 -0.07993,-0.34134 -0.117755,-0.68306 -0.176734,-1.02888 -0.09006,-0.38061 -0.09033,-0.76385 -0.114205,-1.15238 0.02216,0.006 0.04453,0.0128 0.06666,0.0191 l -0.06821,-0.0527 c -0.0018,-0.0272 -0.0025,-0.0539 -0.0047,-0.0811 -0.03584,-0.33436 -0.05087,-0.72472 -0.163814,-1.04387 -0.03229,-0.0913 -0.130553,-0.18623 -0.19327,-0.25528 -0.337391,-0.27979 -0.176719,-0.67913 0.01705,-1.00717 0.248902,-0.41141 0.410091,-0.85707 0.378272,-1.34617 0.003,-0.56258 -0.0023,-1.12525 -0.0098,-1.68776 -0.0173,-0.78738 -0.05579,-1.57635 -0.160197,-2.35747 -0.127282,-0.73638 -0.302975,-1.46656 -0.411344,-2.20555 -8.82e-4,-0.46378 0.0034,-0.92738 0.0078,-1.39113 5.3e-4,-0.57623 -0.0089,-1.15237 -0.0098,-1.72858 -1.9e-4,-0.73563 -0.0086,-1.47146 -0.0057,-2.2071 -0.0026,-0.64251 0.02647,-1.28568 -0.0072,-1.92753 -5.29e-4,-0.004 -0.06018,-0.58966 -0.05943,-0.62477 7.94e-4,-0.0393 0.02324,-0.0755 0.03462,-0.11317 -1.042793,-0.42191 -2.042743,-0.97645 -3.111955,-1.31672 -0.145562,-0.0777 -0.289751,-0.15739 -0.433048,-0.23874 z m -0.309542,16.66616 v 5.2e-4 c 0.01602,0.008 0.100523,0.0504 0.112654,0.0563 l -0.0031,-0.009 c -0.01944,-0.009 -0.106349,-0.0465 -0.109554,-0.0476 z m 0.396875,0.58653 c 0.0026,0.0141 0.0046,0.0283 0.0072,0.0424 0.0061,0.0111 0.0134,0.0211 0.01964,0.032 -0.0095,-0.0247 -0.01844,-0.0493 -0.02687,-0.0744 z" /><path
       style="fill:#da4eda;fill-opacity:1;stroke-width:0.0960001;stroke-dasharray:none"
       d="M 51.028957,69.185326 C 50.455597,54.277992 50.073358,54.086873 50.073358,54.086873 l 10.893822,-0.57336 4.204634,11.84942 v 4.586872 z"
       id="path38" /><path
       style="fill:#da4eda;fill-opacity:1;stroke-width:0.0960001;stroke-dasharray:none"
       d="m 26.565637,52.557915 23.88996,1.528958 0.764479,15.289575 -25.036679,-2.293438 -4.969111,-7.644786 z"
       id="path39" /><path
       style="fill:#da4eda;fill-opacity:1;stroke-width:0.0960001;stroke-dasharray:none"
       id="path40"
       d="m 70.537749,73.119148 c -0.406889,0.04381 -0.817592,0.114173 -1.228093,0.09186 -0.130341,-0.0071 -0.259781,-0.02588 -0.38967,-0.03883 -0.947081,-0.09453 -1.875454,-0.30857 -2.795661,-0.54443 -0.62152,-0.152458 -1.195168,-0.4298 -1.76493,-0.712168 -1.243544,-0.758074 -0.01551,-0.0072 2.949686,1.690076 0.06533,0.03739 -0.128823,-0.07795 -0.192003,-0.118867 -0.179461,-0.116223 -0.340032,-0.246618 -0.501123,-0.38654 -0.427136,-0.39384 -0.75256,-0.8783 -1.114949,-1.328362 -0.286319,-0.330605 -0.632876,-0.601207 -0.971431,-0.875533 -1.494065,-1.100103 -3.089968,-2.10621 -4.823873,-2.776775 -0.534278,-0.155469 -1.05896,-0.372647 -1.608931,-0.471533 -0.268658,-0.0483 -0.594492,-0.06369 -0.863904,-0.08296 -0.845624,-0.05125 -1.692728,-0.07 -2.539561,-0.08865 -0.299294,0.02307 -0.769691,-0.106902 -1.030695,0.07665 -0.04993,0.03512 -0.08762,0.08502 -0.131437,0.127527 -0.103116,0.144126 -0.166979,0.304932 -0.129167,0.485354 0.01066,0.05093 0.01484,0.117129 0.05909,0.144481 3.356168,2.073892 2.167398,1.916282 3.743446,2.080205 1.218454,0.03747 2.414546,0.31782 3.598019,0.589399 0.64384,0.155784 1.290817,0.327522 1.953313,0.38486 0.249616,0.02162 0.816366,0.03051 1.052906,0.03604 1.150226,0.04412 2.299052,-0.02676 3.447696,-0.07794 0.714925,-0.03418 1.430589,-0.04586 2.146183,-0.05508 0.459346,0.0019 0.917837,-0.01233 1.37672,-0.03054 0.07919,-0.0031 0.30021,0.03972 0.237607,-0.0089 -1.045787,-0.811983 -2.152473,-1.542331 -3.228711,-2.313496 -0.09888,0.02524 -0.195874,0.05962 -0.296653,0.0757 -0.1939,0.03092 -0.389829,0.04815 -0.585454,0.06499 -1.088274,0.09368 -2.170751,0.07254 -3.259577,-0.01259 -0.443138,-0.03465 -0.884484,-0.08931 -1.326727,-0.133971 -2.065044,-0.212154 -4.103147,-0.608614 -6.147125,-0.959652 -0.501605,-0.08005 -1.005994,-0.177176 -1.516735,-0.151786 -0.220726,0.01098 -0.285392,0.03208 -0.499417,0.07508 -0.371895,0.05584 -0.735113,0.1416 -1.01981,0.398579 -0.217775,0.243604 -0.215601,0.561218 -0.228809,0.869013 -0.06062,1.720429 1.172409,1.430951 3.526084,2.568811 0.08716,0.04214 0.129894,-0.143595 0.194839,-0.215392 0.387369,-0.488297 0.834634,-0.932683 1.351267,-1.284103 0.124788,-0.08488 0.255818,-0.160197 0.383725,-0.240297 0.645306,-0.385829 1.354122,-0.592926 2.095304,-0.678246 0.508873,-0.06548 1.012968,0.0053 1.51438,0.08859 0.558435,0.10247 1.114912,0.23599 1.684864,0.235159 0.439102,-0.01011 0.877925,-0.03054 1.317088,-0.0375 0.335576,-0.0011 0.671145,-0.0041 1.006692,-0.0087 0.488029,-7.94e-4 0.975849,-0.02855 1.462982,0.0071 0.432654,0.0332 0.865462,0.06639 1.298799,0.08965 0.281181,0.0053 0.56251,0.01024 0.843759,0.0088 0.253368,0.0122 0.510921,-0.02707 0.760323,0.02363 0.361423,0.05375 0.73147,0.04412 1.09679,0.05355 0.412097,0.01027 0.82431,0.0065 1.236483,0.0068 0.461878,-0.0024 0.923719,-0.0048 1.385615,-0.006 0.411528,0.0029 0.823037,0.01138 1.234562,0.0061 0.478956,-0.0094 0.958008,-0.0072 1.437028,-0.0046 0.398548,0.0072 0.79696,0.0065 1.195536,0.0048 0.44164,-5.29e-4 0.883243,-0.0047 1.324888,-0.0053 0.453295,0.0035 0.906499,0.0034 1.359776,-7.94e-4 0.517443,-0.0177 1.027408,-0.01942 1.530574,0.112247 0.40794,0.09833 0.830795,0.10406 1.227522,0.243853 0.206084,0.07038 0.404936,0.176525 0.617894,0.226507 0.102198,0.024 0.262795,0.04111 0.365707,0.05395 0.298374,0.02445 0.600303,0.01125 0.898441,0.03682 0.12174,0.01045 0.242017,0.0339 0.363222,0.04933 0.331793,0.02537 0.661808,0.05806 0.99272,0.08944 0.06804,0.0042 0.136768,0.0024 0.204139,0.01273 0.141414,0.02196 0.277209,0.07238 0.418044,0.09779 0.239721,0.04325 0.484288,0.06484 0.72643,0.08902 0.421338,0.03966 0.844174,0.047 1.266997,0.04796 0.512873,0.0039 1.025353,-0.01 1.537718,-0.03109 0.804214,-0.01834 1.60846,-0.02689 2.409262,0.0549 0.07017,0.01606 0.140332,0.03214 0.210499,0.04821 0,0 -3.122689,-2.332413 -3.122689,-2.332413 v 0 c -0.06761,-0.0021 -0.13522,-0.0045 -0.202829,-0.0067 -0.789681,-0.0084 -1.579526,0.02981 -2.369222,0.0024 -0.538872,-0.01924 -1.077698,-0.03059 -1.616933,-0.03204 -0.409405,-0.008 -0.819589,-0.02016 -1.226497,-0.06909 -0.459486,-0.06175 -0.909997,-0.172879 -1.372452,-0.213326 -0.331216,-0.04032 -0.66522,-0.05005 -0.996661,-0.08987 -0.413134,-0.03283 -0.8328,-0.01352 -1.238883,-0.110662 -0.330541,-0.08609 -0.642815,-0.228822 -0.976005,-0.306284 -0.40504,-0.06918 -0.815525,-0.10804 -1.216446,-0.202777 -0.521581,-0.06117 -1.045469,-0.04811 -1.569868,-0.05158 -0.454014,-0.0041 -0.907955,-0.0044 -1.361988,-7.94e-4 -0.4465,-5.29e-4 -0.892955,-0.0047 -1.33945,-0.0053 -0.394211,-0.0016 -0.788255,-0.0026 -1.182431,0.0048 -0.483253,0.0027 -0.966531,0.0046 -1.449723,-0.0046 -0.405821,-0.005 -0.81161,0.0029 -1.217425,0.0065 -0.46663,-7.94e-4 -0.933207,-0.0026 -1.399823,-0.0051 -0.409755,-7.94e-4 -0.819547,-0.0047 -1.229159,-0.01596 -0.373676,-0.01376 -0.744003,-0.04529 -1.114586,-0.0928 -0.260401,0.0043 -0.520846,-5.3e-4 -0.781275,0.0016 -0.274683,-0.0024 -0.549479,7.94e-4 -0.823923,-0.01397 -0.418495,-0.01252 -0.836303,-0.03659 -1.254414,-0.05747 -0.501398,-0.0067 -1.002882,-0.009 -1.504288,-0.01519 -0.337934,-0.0026 -0.676138,-0.0035 -1.013598,0.01717 -0.424751,0.01953 -0.850455,0.04751 -1.275617,0.03089 -0.55435,-0.05369 -1.101116,-0.15767 -1.648304,-0.259495 -0.526526,-0.07497 -1.052467,-0.08819 -1.577925,0.01397 -0.244332,0.05027 -0.37279,0.07031 -0.614611,0.147492 -0.528066,0.168545 -1.018415,0.42986 -1.496904,0.705495 -0.136141,0.08671 -0.275846,0.168072 -0.408429,0.260139 -0.519121,0.360484 -0.959316,0.818303 -1.466734,1.192897 -1.014338,-0.891262 -0.07357,-0.05906 3.253026,1.919685 0.02727,0.01622 -0.05734,-0.02833 -0.08209,-0.04819 -0.102579,-0.08232 -0.09142,-0.201856 -0.08965,-0.321882 0.0016,-0.179062 -0.02879,-0.415274 0.08177,-0.566602 0.249198,-0.173268 0.56165,-0.204465 0.852495,-0.258337 0.601208,-0.06645 1.202055,-0.0099 1.801027,0.06113 1.958647,0.223276 3.909335,0.510527 5.868215,0.732266 1.313034,0.128024 2.627892,0.250889 3.94693,0.299527 0.649644,0.02397 1.025879,-0.007 1.650574,0.02888 0.13108,0.0075 0.260929,0.02948 0.391393,0.04422 -1.04651,-0.769382 -2.066896,-1.575618 -3.139525,-2.308148 -0.05718,-0.03905 -0.137451,0.01707 -0.206428,0.0231 -0.447373,0.03911 -0.896403,0.03341 -1.344986,0.03323 -0.706614,0.0082 -1.412946,0.03308 -2.11674,0.100724 -1.122852,0.09584 -2.248125,0.171217 -3.3748,0.07826 -0.992177,-0.07363 -1.972726,-0.218749 -2.941992,-0.447122 -0.696413,-0.136017 -1.39201,-0.276746 -2.089328,-0.408056 -0.420875,-0.07926 -0.845015,-0.141174 -1.264618,-0.226909 -0.129167,-0.02638 -0.256,-0.06314 -0.384,-0.0947 -1.708936,-0.830278 4.476422,2.102424 2.738297,1.758466 0.09139,-0.02704 0.186814,-0.02207 0.281644,-0.02529 0.217074,-0.0074 0.434144,-0.01503 0.651311,-0.01924 0.820309,-0.0113 1.642705,-0.0094 2.459453,0.07819 0.1548,0.02215 0.310401,0.03925 0.464394,0.06645 0.66997,0.118303 1.321684,0.339823 1.95367,0.585796 1.4449,0.66268 0.563555,0.274595 -2.569107,-1.552313 -0.07331,-0.04275 0.14713,0.0848 0.218353,0.130947 0.04652,0.03015 0.345546,0.243875 0.393705,0.277556 0.06373,0.04457 0.128074,0.08827 0.192114,0.132405 0.111665,0.0793 0.233432,0.161378 0.336963,0.251823 0.05056,0.04416 0.09269,0.09761 0.144629,0.140139 0.176615,0.144653 0.381873,0.257673 0.542137,0.423833 0.402934,0.407832 0.70835,0.900764 1.076256,1.339723 0.194371,0.215498 0.410903,0.44078 0.663757,0.588854 3.355235,1.964876 2.308741,1.44987 3.720629,2.136331 0.550863,0.250624 1.119841,0.450636 1.714141,0.573672 0.944903,0.219705 1.895128,0.438171 2.863958,0.519232 0.596757,0.03482 1.193236,0.01812 1.789433,-0.02572 z" /><ellipse
       style="fill:#da4eda;fill-opacity:1;stroke-width:0.111201;stroke-dasharray:none"
       id="path41"
       cx="26.454054"
       cy="59.867916"
       rx="5.8448925"
       ry="7.1625276" /><path
       style="fill:#da4eda;fill-opacity:1;stroke-width:0.0960001;stroke-dasharray:none"
       d="m 49.977799,54.277992 -15.194016,-1.242279 25.705599,0.14334 0.477798,0.43002 z"
       id="path42" /><path
       style="fill:#da4eda;fill-opacity:1;stroke-width:0.0960001;stroke-dasharray:none"
       d="m 78.550192,67.08301 117.156368,-0.191119 4.39575,3.822393 v 3.057917 L 85.23938,73.38996 Z"
       id="path43" /><path
       style="fill:#da4eda;fill-opacity:1;stroke-width:0.0960001;stroke-dasharray:none"
       d="m 160.34942,73.772201 -0.38224,68.611969 34.59266,-3.24904 4.58688,-0.95559 1.52895,-3.24904 0.76448,-4.20463 -0.38224,-57.144791 -1.14672,-3.057914 -0.19111,2.866795 z"
       id="path44" /><path
       style="fill:#da4eda;fill-opacity:1;stroke-width:0.0960001;stroke-dasharray:none"
       id="path45"
       d="m 165.16137,76.588328 c -0.0635,-0.536525 -0.051,-1.082 0.0288,-1.615882 0.0455,-0.134882 0.068,-0.257397 0.17955,-0.359722 0.30759,-0.282183 0.9819,-0.326038 1.36671,-0.378262 0.87711,-0.09319 1.76025,-0.09304 2.64115,-0.08681 0.91045,0.01013 1.82072,-0.0094 2.73117,-0.01037 0.9145,-0.04603 1.80681,0.04208 2.68859,0.280773 0.67109,0.206729 1.35666,0.329454 2.04601,0.452382 0.0182,0.03093 0.0842,0.113337 0.0547,0.09279 -1.14538,-0.798923 -2.2334,-1.681673 -3.41031,-2.433373 -0.13991,-0.08936 -0.32882,-0.04772 -0.49433,-0.06054 -0.30535,-0.02365 -0.61161,-0.03359 -0.9175,-0.04886 -1.52445,-0.07613 -1.01548,-0.05297 -2.62339,-0.09409 -2.11025,-0.0033 -4.22024,0.03658 -6.32998,0.07891 -0.74005,-0.01609 -1.46747,0.02278 -2.19861,0.12659 -0.37996,0.02455 -0.78689,0.136128 -1.16038,0.03233 -0.0876,-0.06425 -0.21556,-0.01924 -0.30568,-0.07258 -0.0453,-0.02678 -0.0612,-0.08725 -0.1021,-0.120243 -0.0458,-0.03691 -0.20496,-0.115551 -0.15401,-0.08615 3.30443,1.906621 4.24428,2.579634 3.08321,1.756788 -3.58611,-2.085935 -2.23286,-1.648767 -3.7081,-2.109867 0,0 3.10219,2.455939 3.10219,2.455939 v 0 c 1.22107,0.716735 0.19782,0.115906 -3.07607,-1.791679 1.28434,0.846392 0.21254,0.143785 3.67897,2.170986 0.20294,0.118681 0.42935,0.134551 0.66048,0.155996 0.40299,-0.01842 0.80488,-0.05315 1.20292,-0.121042 0.69473,-0.102587 1.39433,-0.119248 2.09543,-0.148318 2.0521,-0.105272 4.10593,-0.224244 6.16178,-0.168145 1.23899,0.05685 2.46089,0.135324 3.69054,0.300154 0.18587,0.02492 0.68925,0.214871 0.55655,0.08236 -2.52517,-2.521373 -1.68932,-2.763107 -2.94778,-2.360316 -0.6829,-0.1046 -1.34335,-0.300844 -2.01421,-0.461645 -0.89013,-0.181491 -1.78631,-0.207886 -2.69364,-0.172932 -0.92779,-0.0042 -1.85528,-0.03003 -2.78311,-0.02434 -0.88349,0.01442 -1.76947,0.0369 -2.64644,0.153437 -0.76558,0.129056 -1.6026,0.288621 -1.85735,1.130075 -0.0836,0.56705 -0.0848,1.135687 -0.0995,1.707981 z" /><path
       style="fill:#da4eda;fill-opacity:1;stroke-width:0.0960001;stroke-dasharray:none"
       d="m 132.82818,73.38996 -0.57336,39.17954 17.58302,-17.009656 h 5.92471 l 2.86679,2.866795 1.33784,2.675671 h 2.10231 l -0.76447,-27.903469 z"
       id="path46" /><path
       style="fill:#da4eda;fill-opacity:1;stroke-width:0.0960001;stroke-dasharray:none"
       d="m 160.27845,142.10184 -60.13821,6.14896 -15.000761,-1.35142 0.675708,-42.29945 4.865114,0.13514 32.974659,33.51523 5.13539,-0.13515 31.21781,-33.65036 h 0.94599 z"
       id="path47" /><path
       style="fill:#da4eda;fill-opacity:1;stroke-width:0.0960001;stroke-dasharray:none"
       d="m 86.085473,72.976694 -0.135144,32.028666 4.594831,-0.13515 v -2.56769 l 0.540567,-1.35143 0.945994,-1.756842 0.810853,-1.35142 1.35142,-1.35142 1.216279,-0.675709 2.297414,-0.405426 1.081135,0.270282 2.027128,1.081138 1.21628,0.81085 1.21628,0.675711 0.94599,0.810853 0.946,1.621703 1.21628,1.21628 1.35142,1.35142 1.48656,1.21628 1.35142,1.21628 c 0,0 0.54057,0.54056 1.21628,1.35142 0.67571,0.81085 2.02713,1.89198 2.02713,1.89198 l 2.29741,1.89199 2.43256,2.16228 -0.40543,-5.94625 v -3.64884 l -0.27028,-4.594828 v -3.378549 -3.783978 -1.756847 l -0.27029,-8.919374 0.67572,-2.027129 1.21627,-1.081138 0.946,-1.081135 1.89199,-0.810852 2.29741,-0.540568 h 2.29741 l 1.89199,0.675709 2.02713,1.081138 1.08114,1.756846 0.67571,2.432555 1.89199,-8.513947 z"
       id="path48" /><path
       style="fill:#da4eda;fill-opacity:1;stroke-width:0.0960001;stroke-dasharray:none"
       id="path49"
       d="m 87.923689,148.91838 c 0.259818,-0.18871 0.517864,-0.37104 0.741828,-0.60283 0.165346,-0.14736 0.310187,-0.34817 0.51534,-0.44497 0.03437,-0.0162 0.07168,-0.0253 0.107524,-0.0379 0.293798,-0.13018 0.602702,-0.22371 0.918482,-0.28207 0.301284,-0.0452 0.606978,-0.0501 0.910979,-0.0608 0.559406,-0.0238 1.118889,-0.0362 1.677919,-5.2e-4 1.371687,0.58294 -1.281869,-0.53915 -3.237643,-1.82851 -0.08002,-0.0528 0.114813,-0.17211 0.105458,-0.2675 -0.0044,-0.0444 -0.08592,0.0241 -0.127855,0.0392 -0.08681,0.0313 -0.172114,0.0666 -0.258172,0.0999 -0.118962,0.0428 -0.237927,0.0857 -0.356889,0.12853 -0.784534,0.25239 -1.590863,0.42362 -2.392188,0.61194 -0.767339,0.19388 -1.519414,0.44168 -2.281242,0.65453 -0.583801,0.19171 -1.191546,0.30406 -1.767248,0.51996 -0.211232,0.1211 -0.621199,0.23152 -0.732054,0.47147 -0.03332,0.0721 -0.04589,0.15212 -0.06883,0.22818 1.153959,0.6895 2.280778,1.42661 3.461878,2.06851 0.07238,0.0393 0.159967,-0.0396 0.240635,-0.0563 0.103524,-0.0214 0.207447,-0.0411 0.311799,-0.058 0.368858,-0.0599 0.740127,-0.0925 1.112168,-0.12423 0.11203,-0.007 0.224597,-0.008 0.336087,-0.0212 0.114869,-0.0134 0.227864,-0.0398 0.34205,-0.0582 0.183698,-0.0295 0.473017,-0.0681 0.657268,-0.10454 0.174029,-0.0344 0.425897,-0.10061 0.598792,-0.14445 0.505092,-0.14203 1.010097,-0.28164 1.521131,-0.4006 0.598596,-0.17124 1.220489,-0.23683 1.84018,-0.26991 0.164552,-0.0182 0.483558,-0.0504 0.646372,-0.0805 0.18011,-0.0333 0.571635,-0.13522 0.743087,-0.17721 0.449099,-0.10999 0.380056,-0.0921 0.833676,-0.19337 0.640223,-0.15672 1.290656,-0.25328 1.948164,-0.28942 0.466286,-0.001 0.930542,-0.0399 1.3965,-0.0558 0.06978,-0.006 0.139822,-0.01 0.209341,-0.0183 0.737034,-0.0908 -0.3316,0.0221 0.475644,-0.0672 0.292084,-0.0323 0.584944,-0.0468 0.878306,-0.0613 0.594995,-0.0161 1.166414,-0.19529 1.745984,-0.31158 0.0739,-0.0213 0.14773,-0.0425 0.2216,-0.0638 0,0 -3.177831,-2.17343 -3.177831,-2.17343 v 0 c -0.06434,0.0192 -0.128683,0.0383 -0.193024,0.0575 -0.252304,0.0673 -0.503907,0.14468 -0.760979,0.19222 -0.234566,0.0434 -0.373327,0.0534 -0.611092,0.0709 -0.09922,0.007 -0.198591,0.0126 -0.297886,0.0189 -0.539113,0.0277 -1.07704,0.0718 -1.615641,0.10751 -0.45643,0.0275 -0.913599,0.0462 -1.368309,0.0938 -0.295981,0.0342 -0.594474,0.067 -0.885944,0.13087 -0.338249,0.0742 -0.666604,0.1919 -1.006541,0.25966 -0.742958,0.16623 -1.490305,0.31761 -2.252218,0.36223 -0.09714,0.009 -0.574527,0.0495 -0.663583,0.0611 -0.418936,0.0544 -0.826915,0.17268 -1.244312,0.23602 -0.507111,0.12117 -1.007665,0.26457 -1.506214,0.41699 -0.613103,0.1508 -1.233985,0.25504 -1.863252,0.31065 -0.211203,0.0237 -0.531238,0.0615 -0.740828,0.0776 -0.178861,0.0138 -0.535535,0.0391 -0.723423,0.0102 -0.08141,-0.0125 -0.15674,-0.0507 -0.235109,-0.076 1.071983,0.66209 2.143969,1.32418 3.215952,1.98627 -0.03986,0.0351 -0.07637,0.0744 -0.119581,0.10526 -0.0053,0.004 -0.0048,-0.0149 -2.65e-4,-0.0196 0.0232,-0.024 0.05148,-0.0426 0.07889,-0.0616 0.137027,-0.0951 0.287662,-0.16923 0.4407,-0.23447 0.540872,-0.20787 1.095854,-0.37716 1.641954,-0.57054 0.76473,-0.23866 1.542611,-0.42373 2.321044,-0.61171 0.784627,-0.22239 1.563571,-0.46861 2.359991,-0.64617 0.246345,-0.0552 0.496067,-0.0964 0.739833,-0.16202 0.08397,-0.0226 0.181991,-0.0269 0.246629,-0.0851 1.295048,-1.16557 -1.937118,-2.65913 -3.29727,-2.29096 -0.561789,0.041 -1.124357,0.0112 -1.68689,0.003 -0.331177,5.3e-4 -0.657874,0.007 -0.975789,0.11335 -0.337862,0.0921 -0.675203,0.18973 -0.990793,0.34457 -0.261176,0.15892 -0.476501,0.3694 -0.678019,0.59837 -0.202504,0.19639 -0.443587,0.36521 -0.719243,0.43875 z" /><path
       style="fill:#da4eda;fill-opacity:1;stroke-width:0.0960001;stroke-dasharray:none"
       id="path50"
       d="m 88.375568,151.16507 c 0.417222,-0.0496 0.830152,-0.12895 1.240634,-0.21865 0.471125,-0.0788 0.927375,-0.22407 1.393997,-0.32461 0.35097,-0.0481 0.699098,-0.10733 1.039585,-0.20614 0.450974,-0.12286 0.916252,-0.16808 1.372894,-0.26216 0.479052,-0.0988 0.966435,-0.13522 1.45406,-0.15507 0.438758,0.009 0.867243,-0.0816 1.296477,-0.15934 0.412895,-0.0418 0.807042,-0.1538 1.218094,-0.20753 0.16723,-0.0342 0.339076,-0.0593 0.504057,-0.10386 0.173017,-0.0467 0.338802,-0.1169 0.511781,-0.16514 0.242213,-0.039 0.474986,-0.11917 0.715426,-0.16573 0.666612,-0.12909 -0.338916,0.0773 0.337124,-0.0631 0.167381,-0.0426 0.342273,-0.0366 0.51168,-0.062 0.06415,-0.01 0.126723,-0.0279 0.190403,-0.0403 0.0649,-0.0126 0.13021,-0.023 0.19531,-0.0345 0.0703,-0.0141 0.14066,-0.0282 0.21099,-0.0424 0.0719,-0.016 0.14426,-0.0297 0.21557,-0.048 0.0811,-0.0208 0.16038,-0.0483 0.24143,-0.0693 0.29718,-0.077 0.60269,-0.13174 0.90439,-0.18799 0.32593,-0.1057 0.66252,-0.17173 0.99263,-0.26083 0.32418,-0.12341 0.66645,-0.19114 1.00916,-0.23814 0.0646,-0.0111 0.12993,-0.0184 0.19374,-0.0333 0.0644,-0.0151 0.12667,-0.0385 0.19038,-0.0564 0.21351,-0.06 0.43117,-0.11164 0.6475,-0.16038 0.20777,-0.0897 0.44296,-0.0691 0.65582,-0.13317 0.0491,-0.0148 0.0957,-0.0369 0.14357,-0.0553 0.30581,-0.10238 0.61498,-0.18842 0.93403,-0.23676 0.32817,-0.0716 0.66329,-0.0914 0.99778,-0.10584 0.32756,-0.0137 0.65535,-8e-4 0.983,-0.004 0.15191,-0.01 0.30833,0.0172 0.4599,0.002 0.18147,-0.0184 0.36717,-0.0853 0.54266,-0.13125 0.52568,-0.10801 1.03631,-0.27701 1.55883,-0.39855 0.40737,-0.0729 0.81307,-0.15547 1.21593,-0.25009 0,0 -3.17861,-2.19394 -3.17861,-2.19394 v 0 c -0.38193,0.099 -0.76066,0.21094 -1.14679,0.29314 -0.53463,0.12788 -1.07101,0.25228 -1.61263,0.34694 -0.32828,0.0486 -0.65516,0.0517 -0.9867,0.0454 -0.33044,-0.002 -0.66067,0.0112 -0.99078,0.0249 -0.3421,0.0238 -0.67763,0.0865 -1.01421,0.15061 -0.33202,0.0666 -0.65595,0.16165 -0.98206,0.25199 -0.26676,0.0459 -0.52937,0.10276 -0.78825,0.1835 -0.32416,0.0934 -0.64793,0.19293 -0.98255,0.24202 -0.35929,0.0679 -0.7186,0.14095 -1.069098,0.24613 -0.315833,0.0876 -0.624708,0.20014 -0.945639,0.26944 -0.444138,0.11321 -0.888254,0.22761 -1.341554,0.2985 -0.380757,0.0565 -0.76449,0.0934 -1.141701,0.17119 -0.356,0.074 -0.706633,0.17018 -1.059397,0.25802 -0.326874,0.0945 -0.65667,0.17739 -0.993103,0.23112 -0.393814,0.0779 -0.783754,0.17377 -1.181478,0.23171 -0.428636,0.0605 -0.858878,0.0958 -1.291246,0.1169 -0.486286,0.0402 -0.965793,0.1238 -1.444954,0.21424 -0.478348,0.0697 -0.957908,0.12615 -1.427366,0.24622 -0.349102,0.0574 -0.696759,0.12942 -1.039878,0.21535 -0.447662,0.12419 -0.894041,0.25771 -1.354604,0.32624 -0.426595,0.068 -0.859517,0.14495 -1.29233,0.0931 z" /><path
       style="fill:#da4eda;fill-opacity:1;stroke-width:0.0960001;stroke-dasharray:none"
       id="path56"
       d="m 67.680022,133.17481 c -0.04725,-0.12666 -0.0427,-0.26188 -0.04907,-0.39436 -0.003,-0.0618 -0.0097,-0.12337 -0.01323,-0.18514 -0.004,-0.13347 -0.02349,-0.26605 -0.02432,-0.39954 0.0054,-0.0685 0.0013,-0.13737 0.0056,-0.20582 0.0013,-0.0201 0.0059,-0.04 0.0055,-0.0601 -5.3e-4,-0.0245 -0.0055,-0.0487 -0.0082,-0.073 -0.01243,-0.0617 -0.01479,-0.12362 -0.03437,-0.18384 -0.006,-0.0184 -0.015,-0.0357 -0.02043,-0.0542 -0.01468,-0.0501 -0.02453,-0.10144 -0.0376,-0.15196 -0.01561,-0.071 -0.03829,-0.14138 -0.04629,-0.21396 -0.01035,-0.0939 0.0075,-0.0275 -0.01805,-0.10424 -0.05201,-0.10137 -0.07183,-0.17706 -0.08393,-0.29139 0.0024,-0.14107 -0.02811,-0.2791 -0.05342,-0.41704 -0.01196,-0.12528 -0.0136,-0.25105 -0.01723,-0.37675 -0.0028,-0.12834 0.0021,-0.25655 0.0016,-0.38492 -0.0024,-0.098 0.0019,-0.19975 -0.0141,-0.297 -0.0077,-0.0471 -0.02342,-0.0924 -0.03418,-0.13889 -0.03206,-0.13438 -0.08716,-0.26257 -0.117647,-0.39713 -0.0037,-0.0172 -0.0082,-0.0341 -0.01111,-0.0515 -0.01656,-0.10007 -0.0031,-0.054 -0.02257,-0.14548 -0.01471,-0.0692 -0.03649,-0.137 -0.05408,-0.20548 -2.7e-5,-0.0795 -0.03291,-0.15047 -0.05375,-0.22495 -0.01799,-0.0643 -0.03172,-0.13016 -0.0499,-0.19465 -0.03235,-0.18204 -0.103749,-0.35283 -0.147691,-0.53135 -0.03642,-0.14893 -0.08732,-0.29478 -0.123415,-0.44378 -0.01677,-0.0693 -0.02801,-0.15455 -0.03858,-0.22508 -0.01955,-0.20107 -0.02746,-0.40201 -0.0635,-0.60116 -0.04814,-0.2225 -0.08603,-0.44677 -0.09944,-0.67411 -0.0099,-0.21243 -0.03293,-0.42432 -0.06684,-0.63421 -0.06746,-0.21968 -0.128619,-0.44185 -0.175929,-0.66679 -0.0067,-0.0333 -0.0141,-0.0664 -0.02006,-0.0998 -0.0055,-0.0308 -0.0076,-0.0621 -0.01416,-0.0927 -0.02894,-0.13438 -0.07481,-0.26508 -0.114165,-0.39658 -0.03621,-0.12556 -0.04551,-0.25765 -0.08398,-0.38254 -0.01281,-0.0416 -0.02887,-0.082 -0.04331,-0.12303 -0.01307,-0.0426 -0.02614,-0.0853 -0.0392,-0.12792 -0.07165,-0.28336 -0.140811,-0.56725 -0.222965,-0.84786 -0.108172,-0.33726 -0.179932,-0.6871 -0.22811,-1.03767 -0.02768,-0.26586 -0.02106,-0.53349 -0.0075,-0.79993 0.005,-0.0222 -0.003,-0.0526 0.01498,-0.0665 0.01164,-0.009 0.03327,0.0458 0.01998,0.0394 -1.168148,-0.55839 -2.310632,-1.17125 -3.492746,-1.69943 -0.06525,-0.0292 0.07478,0.12205 0.106177,0.18625 0.04218,0.0863 0.07579,0.17647 0.114208,0.26447 0.05795,0.13273 0.116602,0.26515 0.174903,0.39772 0.04963,0.14184 0.09551,0.28505 0.148899,0.42551 0.299524,0.78805 0.175848,0.36168 0.446477,1.19769 0.087,0.26875 0.313827,1.04533 0.386273,1.31436 0.05672,0.21064 0.106664,0.42304 0.159996,0.63456 0.190127,0.68621 0.365511,1.37659 0.563557,2.06062 0.07704,0.2661 0.162984,0.52957 0.238705,0.79604 0.112342,0.39533 0.299759,1.13098 0.403542,1.53298 0.134535,0.59399 0.276474,1.18743 0.376476,1.7886 0.05498,0.33051 0.08982,0.66499 0.129624,0.99759 0.05218,0.35043 0.126728,0.69693 0.152546,1.0508 0.02471,0.17009 -0.0024,0.34149 0.01273,0.51161 0.0063,0.1129 -0.0451,0.20773 -0.0928,0.30599 0,0 3.340259,1.90989 3.340259,1.90989 v 0 c 0.07568,-0.13567 0.16307,-0.26831 0.207206,-0.41836 0.0059,-0.0324 0.01537,-0.0643 0.01781,-0.0971 0.0034,-0.0454 -0.01138,-0.12722 -0.01799,-0.17022 -0.01873,-0.12231 -0.03673,-0.24475 -0.05828,-0.3666 -0.02246,-0.10691 -0.03967,-0.21488 -0.06233,-0.32175 -0.06206,-0.29259 -0.14411,-0.58169 -0.251455,-0.86092 -0.426415,-1.00675 -0.800653,-2.03516 -1.127908,-3.07842 -0.132379,-0.46177 -0.312647,-1.07125 -0.424193,-1.53821 -0.05978,-0.25028 -0.106545,-0.50349 -0.160113,-0.75517 -0.14406,-0.67681 -0.287573,-1.35411 -0.468193,-2.0224 -0.228923,-0.79648 -0.150455,-0.49475 -0.34903,-1.30086 -0.101439,-0.41179 -0.199951,-0.79599 -0.273789,-1.2132 -0.02897,-0.16369 -0.04189,-0.32993 -0.06996,-0.49379 -0.0226,-0.13193 -0.05465,-0.26207 -0.08198,-0.39311 -0.006,-0.0742 -0.03853,-0.4309 -0.03638,-0.53832 0.0011,-0.0471 0.05878,-0.11707 0.01775,-0.14018 -3.379726,-1.90378 -3.799356,-3.13149 -3.505171,-1.68226 0.02651,0.29647 0.06256,0.59176 0.09961,0.88708 0.01326,0.12664 0.02085,0.25386 0.03575,0.38031 0.02712,0.23004 0.08151,0.45718 0.124063,0.6845 0.06745,0.27281 0.133498,0.54593 0.201787,0.81852 0.01111,0.0793 0.01844,0.15927 0.03329,0.23798 0.02469,0.13091 0.0756,0.25648 0.10074,0.38744 0.01109,0.059 0.02712,0.15102 0.04298,0.21008 0.0082,0.0305 0.02024,0.0598 0.02878,0.0902 0.0087,0.031 0.01352,0.063 0.02289,0.0939 0.0094,0.0311 0.02384,0.0605 0.03341,0.0915 0.01109,0.0359 0.019,0.0727 0.02851,0.10909 0.06031,0.21489 0.102764,0.43465 0.144867,0.65377 0.04711,0.13521 0.01339,0.0328 0.05542,0.17763 0.009,0.0309 0.0213,0.0609 0.02781,0.0924 0.02228,0.1079 0.02286,0.22086 0.04545,0.32886 0.02885,0.22785 0.02291,0.45895 0.0546,0.68689 0.03396,0.2005 0.08748,0.39834 0.09921,0.60231 0.01561,0.12599 0.03012,0.25353 0.05084,0.37875 0.0226,0.13656 0.02133,0.0846 0.05226,0.21633 0.0085,0.0364 0.01442,0.0734 0.02164,0.11005 0.05626,0.19097 0.0051,-0.004 0.03841,0.19881 0.01619,0.0987 0.06272,0.19103 0.07038,0.29184 0.0096,0.0599 0.01217,0.0876 0.02902,0.14589 0.0065,0.0226 0.01714,0.0439 0.02291,0.0667 0.01783,0.0702 0.02257,0.14253 0.06572,0.20454 0.0093,0.0707 0.01603,0.14312 0.03256,0.21262 0.0089,0.0373 0.02737,0.0722 0.03438,0.10993 0.0043,0.0229 0.0036,0.0465 0.0054,0.0698 0.01164,0.0748 0.02024,0.15043 0.0419,0.22318 0.01365,0.0459 0.03519,0.0937 0.05033,0.13908 0.0072,0.0218 0.01302,0.044 0.01953,0.066 0.01281,0.0411 0.019,0.0841 0.03245,0.12491 0.0056,0.0169 0.01725,0.0312 0.02339,0.0478 0.01995,0.0541 0.0173,0.11139 0.03018,0.16697 -7.94e-4,0.12984 0.0035,0.25952 0.0013,0.38934 -0.0024,0.13624 -0.0019,0.27245 0.0069,0.40854 0.0013,0.13589 0.01685,0.27042 0.06348,0.39898 -0.0033,0.12573 -0.02524,0.2557 0.0042,0.37905 0.05129,0.14817 -0.02196,-0.0442 0.04234,0.0734 0.03731,0.0682 0.02588,0.16978 0.06237,0.23997 0.01243,0.0414 0.03012,0.0814 0.03798,0.12393 0.0042,0.0226 0.0019,0.0461 0.0055,0.0689 0.0087,0.0552 0.04113,0.0969 0.04677,0.15252 0.0069,0.0236 0.02005,0.0453 0.02442,0.0695 0.0132,0.0727 -0.0058,0.15144 0.0097,0.22441 0.0068,0.14972 0.0021,0.29963 0.03641,0.44697 0.06214,0.33577 -0.02946,-0.16465 0.03076,0.18327 0.0052,0.0302 0.01495,0.0596 0.01765,0.0901 0.0068,0.0776 -0.0059,0.15593 -0.03938,0.22603 z" /><path
       style="fill:#da4eda;fill-opacity:1;stroke-width:0.0960001;stroke-dasharray:none"
       id="path57"
       d="m 68.438844,134.8143 c -0.009,-0.0149 -0.02045,-0.0285 -0.02697,-0.0447 -0.01749,-0.0432 -0.02397,-0.09 -0.03757,-0.13458 -0.01619,-0.0531 -0.03366,-0.10581 -0.05314,-0.1578 -0.02884,-0.0852 -0.0076,-0.008 -0.01868,-0.11728 -0.0019,-0.0177 -0.0073,-0.0349 -0.0097,-0.0526 -0.0026,-0.019 0.0011,-0.039 -0.005,-0.0572 -0.0013,-0.004 -0.04647,-0.0601 -0.0491,-0.0634 -0.04964,-0.0692 -0.04444,-0.12132 -0.05036,-0.20155 -0.0029,-0.0396 -0.0098,-0.0632 -0.01868,-0.10069 -0.0047,-0.0333 -0.02492,-0.0639 -0.02994,-0.097 -0.008,-0.0525 -0.0021,-0.0683 -0.02764,-0.11655 -0.04239,-0.0876 -0.0011,-0.18298 -0.03441,-0.2716 -0.02635,-0.0585 -0.05416,-0.11823 -0.07467,-0.17962 7.94e-4,-0.0158 0.0016,-0.0317 0.0024,-0.0475 -0.0034,-0.0111 -0.0095,-0.0217 -0.01029,-0.0332 -0.0016,-0.0237 0.006,-0.0475 0.0034,-0.071 -0.0058,-0.0534 -0.03268,-0.0815 -0.07506,-0.10696 -0.03968,-0.0245 -0.02278,-0.01 -0.0512,-0.0445 0,0 -3.501782,-1.76492 -3.501782,-1.76492 v 0 c -0.02098,0.1146 -0.01355,0.0578 -0.02281,0.17044 0.0019,0.0303 -0.0037,0.11357 0.04966,0.11845 0.01191,0.001 0.02447,-0.0155 0.03462,-0.009 0.01625,0.0101 -0.008,0.0503 0.02537,0.0515 0.0042,0.0844 0.01505,0.16654 0.03683,0.24792 0.0091,0.025 0.01095,0.0413 0.03232,0.0588 0.0081,0.007 0.02103,0.007 0.02802,0.0145 0.03427,0.0385 0.0065,0.0965 0.01566,0.14141 -0.0019,0.0434 -0.0077,0.0491 0.0077,0.0859 0.0037,0.009 0.0123,0.0157 0.01476,0.025 0.01196,0.0452 0.0021,0.0973 0.02259,0.14125 0.01148,0.0338 0.01736,0.0568 0.03542,0.0877 0.0067,0.0115 0.02,0.0196 0.02358,0.0324 0.01717,0.0619 -0.0074,0.13309 0.006,0.19576 0.0013,0.0159 0.0055,0.0941 0.01688,0.11185 0.0067,0.0105 0.02403,0.009 0.03275,0.0184 0.01058,0.0109 0.01423,0.0269 0.02318,0.0392 0.04477,0.0614 0.02606,-0.002 0.03385,0.0996 0.01013,0.0653 0.02582,0.12505 0.04774,0.18749 0.0053,0.015 0.03094,0.0774 0.03268,0.0961 0.0016,0.0165 -0.0031,0.0331 -0.0047,0.0496 z" /><path
       style="fill:#da4eda;fill-opacity:1;stroke-width:0.0960001;stroke-dasharray:none"
       d="m 100.38562,96.467664 16.81853,15.337356 0.19112,-0.7167 -16.62741,-15.385135 z"
       id="path58" /><ellipse
       style="fill:#ffffff;fill-opacity:1;stroke-width:0.179028;stroke-dasharray:none"
       id="path59"
       cx="96.744804"
       cy="101.98156"
       rx="6.1996403"
       ry="6.2334261" /><path
       style="fill:#da4eda;fill-opacity:1;stroke:none;stroke-width:0.0960001;stroke-dasharray:none;stroke-opacity:1"
       id="path60"
       d="m 74.59605,139.91243 c -0.08238,-1.30171 -0.137909,-2.60631 -0.354907,-3.89531 -0.06166,-0.36629 -0.14464,-0.72868 -0.216958,-1.09303 -0.546095,-2.23556 -1.170054,-4.45326 -1.907887,-6.63326 -0.405503,-1.14045 -0.890799,-2.25079 -1.207529,-3.42071 -0.202147,-0.83666 -0.254807,-1.6979 -0.2759,-2.5553 -0.05885,-0.91865 0.07465,-1.81811 0.296284,-2.70636 0.472492,-1.73392 0.256852,-1.18816 -3.347977,-2.58415 -0.19299,-0.0747 -0.22484,0.34775 -0.327901,0.52721 -0.270216,0.47056 -0.548928,1.0408 -0.791234,1.52089 -0.604512,1.26719 -1.226664,2.57514 -1.378529,3.9897 -0.02652,0.247 -0.0232,0.4963 -0.03482,0.74444 0.0024,1.26528 0.247362,2.50249 0.510144,3.73371 0.155291,0.73062 0.262937,1.31802 0.747331,1.9058 1.419527,0.78443 3.127259,3.26801 3.780369,1.54396 0.05377,-0.14194 0.05678,-0.29821 0.08516,-0.44732 0,0 -3.409402,-1.82294 -3.409402,-1.82294 v 0 c -0.328141,1.52904 -0.220699,0.21769 3.169161,2.21073 -0.175789,-0.12179 -0.254659,-0.15879 -0.393981,-0.33554 -0.313518,-0.39776 -0.396745,-0.93803 -0.544721,-1.4063 -0.323445,-1.19998 -0.528003,-2.43066 -0.609711,-3.67132 0.0021,-0.2362 -0.01061,-0.47299 0.0061,-0.70862 0.09789,-1.37873 0.669761,-2.68032 1.270778,-3.90351 0.287378,-0.50545 0.501515,-0.94617 0.880618,-1.38664 0.07961,-0.0925 0.381122,-0.15578 0.284544,-0.23038 -1.012862,-0.78239 -2.162178,-1.37007 -3.243265,-2.0551 0.01072,0.0629 0.03587,0.12495 0.03214,0.18863 -0.0072,0.12305 -0.04302,0.24275 -0.06453,0.36413 -0.208108,0.91935 -0.42165,1.84123 -0.344712,2.79113 0.01474,0.88866 0.02866,1.77846 0.252907,2.64564 0.187704,0.72664 0.427564,1.42911 0.723749,2.11954 0.0909,0.21188 0.196811,0.41708 0.288918,0.62844 0.111029,0.25477 0.213595,0.51315 0.320394,0.76972 0.837295,2.1441 1.473047,4.36146 1.978012,6.60663 0.07433,0.35549 0.164206,0.70809 0.222977,1.06648 0.201269,1.22735 0.213808,2.47543 0.09536,3.71109 z" /><ellipse
       style="fill:#ffffff;fill-opacity:1;stroke:none;stroke-width:0.085016;stroke-dasharray:none;stroke-opacity:1"
       id="path61"
       cx="153.82541"
       cy="101.08624"
       rx="6.6219597"
       ry="7.0273857" /><path
       style="fill:#da4eda;fill-opacity:1;stroke:none;stroke-width:0.0960001;stroke-dasharray:none;stroke-opacity:1"
       d="m 159.75477,104.92089 0.25339,-0.48989 0.18582,-0.96288 c 0,0 0.43921,0.4561 0.43921,0.52367 0,0.0676 0.0676,0.54057 0.0676,0.54057 z"
       id="path62" /><path
       style="fill:#000000;fill-opacity:0;stroke:none;stroke-width:0.0960001;stroke-dasharray:none;stroke-opacity:1"
       d="m 123.62117,138.21651 2.58459,2.70284 2.61838,-2.83798 z"
       id="path63" /><path
       style="fill:#ffffff;fill-opacity:1;stroke:none;stroke-width:0.0960001;stroke-dasharray:none;stroke-opacity:1"
       d="m 123.64651,138.24185 2.58459,2.31431 2.55925,-2.44101 z"
       id="path64" /><path
       style="fill:#ffffff;fill-opacity:1;stroke:none;stroke-width:0.0960001;stroke-dasharray:none;stroke-opacity:1"
       id="path65"
       d="m 127.70412,138.86829 c -0.011,-0.009 -0.0388,-0.0236 -0.0308,-0.0458 0.007,-0.0187 0.0325,-0.0239 0.0479,-0.0274 0.008,-0.002 0.0166,-0.004 0.025,-0.004 0.007,1.4e-4 0.0135,0.003 0.0203,0.005 0.005,0.004 0.009,0.008 0.0148,0.0111 0.0549,0.0273 -0.0118,-0.0173 0.0231,0.0169 0.004,0.004 0.0141,0.003 0.0153,0.009 0.004,0.0179 0.0135,0.0645 -0.002,0.0548 -1.11548,-0.70709 -2.21393,-1.44071 -3.32089,-2.16106 0.004,0.0155 0.0301,-0.0369 0.0475,-0.0299 0.001,5.3e-4 0.004,0.017 0.004,0.0171 -0.003,0.004 -0.0207,5.3e-4 -0.0275,-1.4e-4 -0.008,2.6e-4 -0.0365,2.7e-4 -0.0441,0.004 -0.003,10e-4 -0.004,0.006 -0.005,0.009 -0.006,0.003 -0.0121,0.007 -0.0187,0.008 -0.0151,0.003 -0.026,-2.2e-4 -0.0405,-0.003 -0.006,-0.002 -0.0126,-0.006 -0.0193,-0.006 -0.007,2.7e-4 -0.012,0.007 -0.0186,0.008 -0.006,0.002 -0.0133,5.3e-4 -0.0199,0.001 -0.009,0.001 -0.0187,0.004 -0.0282,0.004 -0.0172,0.001 -0.0221,-7.9e-4 -0.0382,-0.004 -0.0557,0.0148 0.0175,-0.007 -0.0425,0.0182 -0.001,5.3e-4 0.002,-0.003 0.001,-0.004 -0.001,-0.002 -0.003,-0.004 -0.006,-0.004 -0.0106,0.005 -0.006,0.005 -0.0147,0.003 -0.0209,0.0191 -0.008,0.0112 -0.0273,0.0188 -0.006,0.002 -0.0111,0.006 -0.0171,0.007 -0.004,0.001 -0.008,-2.7e-4 -0.0125,5.3e-4 -0.0318,0.006 -0.005,0.006 -0.0304,0.004 -0.004,-0.001 -0.009,-0.002 -0.0133,-0.003 -0.003,-0.001 -0.006,-0.003 -0.008,-0.004 -0.007,-0.003 -0.018,-0.005 -0.025,-0.007 -0.028,-0.008 -0.007,-0.003 -0.0315,-0.008 -7.9e-4,-0.0219 0.003,-0.0105 -0.0112,-0.0237 -0.003,-0.003 -0.005,-0.007 -0.009,-0.009 -0.005,-0.003 -0.0133,-0.003 -0.016,-0.008 -0.0276,-0.0539 0.0252,5.3e-4 -0.011,-0.0331 -0.003,-0.0109 -0.005,-0.023 -0.0139,-0.0313 -0.002,-0.002 -0.0369,-0.0218 -0.0414,-0.0233 -0.005,-0.002 -0.0113,-0.002 -0.0169,-0.003 -5.3e-4,-0.003 -4e-5,-0.006 -0.002,-0.009 -0.002,-0.003 -0.0385,-0.0315 -0.0172,-0.0192 1.10492,0.63746 4.56843,2.13707 3.31187,1.91738 -1.26245,-0.22071 -2.21757,-1.28549 -3.33069,-1.92067 -0.005,-0.003 -0.009,0.008 -0.0143,0.012 -0.0403,0.0285 -0.0898,0.0428 -0.13916,0.0316 -0.0149,-0.003 -0.0287,-0.0103 -0.043,-0.0154 -0.0346,-0.0131 -0.0457,-0.0145 -0.0751,-0.0353 -0.01,-0.007 -0.0183,-0.0161 -0.0279,-0.0236 -0.009,-0.007 -0.0185,-0.0123 -0.0272,-0.0192 -0.01,-0.008 -0.0185,-0.0168 -0.0281,-0.0249 -0.01,-0.008 -0.0195,-0.0159 -0.0293,-0.0238 -0.0107,-0.006 -0.0224,-0.01 -0.032,-0.0173 -0.009,-0.007 -0.0313,-0.0293 -0.0219,-0.0239 1.09716,0.62784 2.19223,1.25932 3.28657,1.89205 0.002,0.001 -0.004,0.004 -0.006,0.005 -0.006,0.001 -0.0113,-0.007 -0.014,-0.01 -0.002,-0.001 -0.005,-0.002 -0.007,-0.003 -0.004,-2.6e-4 -0.009,7.9e-4 -0.0127,-7.9e-4 -0.004,-0.002 -0.006,-0.006 -0.0102,-0.009 -0.006,-0.004 -0.0135,-0.007 -0.0197,-0.0121 -0.005,-0.004 -0.009,-0.0102 -0.0148,-0.0137 -0.006,-0.004 -0.0142,-0.006 -0.0212,-0.009 -0.004,-0.006 -0.006,-0.0124 -0.011,-0.0168 -0.003,-0.003 -0.009,-0.002 -0.0127,-0.004 -0.0103,-0.006 -0.0107,-0.0114 -0.0187,-0.0194 -0.0101,-0.0102 -0.0131,-0.0112 -0.0241,-0.0178 -10e-4,-0.003 -0.003,-0.007 -0.004,-0.01 -2.3e-4,-5.3e-4 10e-4,0.001 7.9e-4,0.002 -0.01,0.0327 -0.0153,0.0669 -0.0297,0.0978 -0.0287,0.0614 -0.0628,0.12027 -0.0989,0.17766 -0.0354,0.0564 -0.0245,0.0541 -0.0545,0.0556 0.0129,-0.003 0.0276,0.0178 0.0376,0.0123 0.0379,-0.021 -0.004,-0.007 0.0281,-0.0163 0.0233,-7.9e-4 0.0406,-9e-5 0.0521,0.0239 0.002,0.005 0.0101,0.0363 0.0119,0.0431 0.02,0.0331 0.009,0.0157 0.034,0.0518 -1.08652,-0.62399 -2.17642,-1.24214 -3.25957,-1.87195 -0.006,-0.004 0.009,-0.0114 0.0149,-0.0147 0.0138,-0.007 0.0208,-0.003 0.0335,0.001 0.0305,0.0409 0.0127,0.0148 0.0493,0.081 1.08439,0.62908 2.16494,1.2648 3.25315,1.88723 0.009,0.005 0.018,-0.008 0.0276,-0.0107 0.0279,-0.006 0.0551,-0.004 0.0834,-0.004 0.11745,0.0144 -0.0208,-0.004 0.0992,0.0176 0.0142,0.003 0.0287,0.003 0.0431,0.005 0.0266,0.004 0.0456,0.008 0.0722,0.006 0.0111,-8e-4 0.0219,-0.004 0.0328,-0.006 0.0287,-0.003 0.0549,-0.0154 0.0825,-0.0223 0.007,-0.002 0.0151,-0.002 0.0224,-0.004 0.012,-0.003 0.0276,-0.0115 0.0387,-0.0169 0.0475,-0.0175 5.3e-4,-0.003 0.0448,-0.0103 0.006,-10e-4 0.0115,-0.004 0.0175,-0.005 0.005,-8e-4 0.0102,0.001 0.0153,2.6e-4 0.0159,-0.002 0.015,-0.004 0.0259,-0.0131 0.006,-5.3e-4 0.0129,-0.002 0.0193,-0.002 0.0322,8e-4 0.0703,0.014 0.10127,0.0232 0.003,0.014 0.0214,0.0173 0.0269,0.0294 0.002,0.005 0.01,0.0715 -0.0119,0.0595 -3.40263,-1.89663 -3.96589,-0.77603 -3.35446,-1.96133 0.0401,-0.0484 -0.0218,0.0267 0.0315,-0.0396 0.004,-0.005 0.007,-0.012 0.0131,-0.0154 0.002,-10e-4 0.002,0.005 0.003,0.006 0.003,0.003 0.015,-0.005 0.0183,-0.006 0.0121,0.0297 0.007,0.0138 0.015,0.0437 10e-4,0.004 0.002,0.008 0.003,0.0121 10e-4,0.002 0.005,0.003 0.005,0.006 2.7e-4,0.008 -0.003,0.0167 -0.004,0.025 0.001,0.0118 0.002,0.0236 0.004,0.0354 0.012,0.021 0.008,0.008 0.007,0.0331 -1e-4,0.003 2.7e-4,0.005 2.7e-4,0.008 -1.3e-4,0.004 -10e-4,0.008 -10e-4,0.0119 7e-5,0.001 10e-4,0.003 0.002,0.002 0.004,-0.002 0.006,-0.006 0.009,-0.009 8e-4,-8e-4 0.0169,-0.016 0.0203,-0.0183 0.009,-0.006 0.0187,-0.009 0.0275,-0.0141 0.009,-0.005 0.0159,-0.0141 0.0257,-0.0171 0.003,-0.001 0.004,0.005 0.006,0.007 0.002,0.002 0.005,0.003 0.007,0.005 0.002,0.004 -0.0201,0.0277 -0.0216,0.0298 -0.007,0.009 -0.0353,0.0562 -0.036,0.0573 -0.0252,0.0456 -0.0348,0.0579 -0.051,0.10626 -0.006,0.0174 -0.0117,0.035 -0.0142,0.0532 -0.002,0.0141 -0.0115,0.0354 7.9e-4,0.0427 3.32038,2.00458 2.34651,2.80153 3.36668,1.95177 0.008,-0.005 0.0155,-0.0121 0.0243,-0.0162 0.004,-0.002 0.0413,-0.01 0.0465,-0.0107 0.007,-10e-4 0.014,-0.002 0.0209,-0.004 0.0434,-0.0104 -0.007,-0.001 0.0352,-0.008 0.0429,-0.0129 0.0146,-10e-4 0.0611,-0.0352 0.0295,-0.0217 0.021,-0.008 0.0432,-0.0409 7.9e-4,-0.001 -0.004,0.003 -0.004,0.002 0.002,-0.007 0.006,-0.013 0.009,-0.0195 0.0128,-0.006 0.0151,-0.01 0.0301,-0.007 0.004,7.9e-4 0.007,0.005 0.0117,0.005 0.008,2.6e-4 0.0266,-0.008 0.0357,-0.003 0.003,0.002 0.001,0.006 0.002,0.009 0.003,-0.002 0.005,0.003 0.007,0.002 0.0158,-0.009 0.0251,-0.0248 0.0377,-0.0366 0.0196,-0.0183 0.0173,-0.0154 0.039,-0.0225 0.009,-0.005 0.0126,0.0119 0.0196,0.01 0.008,-0.002 0.0138,-0.01 0.0205,-0.0152 0.007,-0.005 0.0136,-0.0104 0.0194,-0.0166 0.0294,-0.0317 0.005,-0.0154 0.027,-0.0286 0.003,-0.006 0.009,-0.0212 0.0152,-0.0276 0.005,-0.005 0.0109,-0.009 0.0158,-0.014 0.006,-0.007 0.0113,-0.014 0.0172,-0.0208 0.006,-0.007 0.013,-0.0143 0.0194,-0.0214 0.007,-0.008 0.0131,-0.0154 0.0197,-0.023 0.003,-0.0129 0.0144,-0.0207 0.0198,-0.0321 0.005,-0.01 0.008,-0.0197 0.0121,-0.0294 0.007,-0.0155 0.0137,-0.0276 0.0216,-0.0424 0,0 -3.45203,-1.86991 -3.45203,-1.86991 v 0 c 0.0106,-0.002 0.0109,-0.006 0.015,-0.016 8e-4,-0.002 -0.004,0.005 -0.002,0.006 0.002,0.001 0.002,-0.004 0.004,-0.005 0.003,-0.002 0.006,-0.005 0.009,-0.007 5.3e-4,-5.3e-4 0.009,-0.006 0.006,-0.009 -2.6e-4,-5.2e-4 -0.0189,0.0144 -0.0259,0.003 -0.002,0.002 -0.004,0.007 -0.006,0.005 -0.004,-0.003 0.001,-0.0145 0.002,-0.0181 5.3e-4,-0.002 0.003,-0.008 10e-4,-0.007 -0.005,0.004 -0.008,0.01 -0.0116,0.0141 -0.004,0.004 -0.009,0.009 -0.0128,0.0128 -0.002,0.002 -0.004,0.005 -0.007,0.005 -0.002,4e-5 -0.0109,-0.0136 -0.0132,-0.0166 -0.002,-0.003 -0.004,-0.008 -0.008,-0.008 -0.007,-2.6e-4 -0.0131,0.005 -0.0199,0.007 -0.007,0.002 -0.0143,0.004 -0.0215,0.005 -0.006,0.005 -0.0125,0.009 -0.0178,0.0151 -0.002,0.002 -0.003,0.006 -0.005,0.009 -7.9e-4,0.002 -10e-4,0.003 -0.002,0.004 -7.9e-4,7.9e-4 -0.0246,0.024 -0.0276,0.0257 -0.005,0.003 -0.0109,0.004 -0.0163,0.006 -0.0302,-0.0103 -0.0139,-0.01 -0.0487,0.003 -0.005,-0.001 -8e-4,-0.0111 5.3e-4,-0.0164 0.003,-0.0133 0.02,-0.0246 0.0205,-0.0396 -0.0325,-0.012 -0.0389,-0.0295 -0.0462,-0.0624 -2e-5,-0.0109 -0.009,-0.0381 -6e-5,-0.0327 1.11073,0.64571 2.21745,1.29843 3.31793,1.96144 0.009,0.006 -0.01,0.0193 -0.0149,0.0285 -0.008,0.0134 -0.016,0.0266 -0.0248,0.0394 -0.0231,0.0335 -0.0325,0.0419 -0.0601,0.0725 -0.007,0.005 -0.0125,0.0128 -0.0204,0.0164 -0.002,0.001 -0.007,-0.007 -0.007,-0.0174 7.9e-4,-0.0241 0.0183,-0.0484 0.031,-0.0673 0.004,-0.007 0.009,-0.0146 0.0133,-0.0216 0.0138,-0.0204 0.0382,-0.0511 0.0493,-0.0752 0.0108,-0.0234 0.007,-0.0509 0.0172,-0.0745 8e-4,-0.008 0.003,-0.017 0.002,-0.0254 -0.002,-0.0179 -0.009,-0.0119 -0.0192,-0.0206 -0.004,-0.004 -0.007,-0.009 -0.0113,-0.0126 -0.0219,-0.0147 -0.01,0.007 -0.019,-0.0161 -0.001,0.001 -0.0139,0.0215 -0.0213,0.0129 -0.004,-0.005 -9e-5,-0.0122 -0.001,-0.0182 -7.9e-4,-0.004 -0.002,-0.008 -0.004,-0.0121 -2.7e-4,-0.001 -0.002,-0.002 -10e-4,-0.003 8e-4,-7.9e-4 0.002,2.7e-4 0.003,5.3e-4 0.003,-0.008 0.008,-0.015 0.01,-0.0231 0.0132,-0.0484 -0.007,0.01 -0.002,-0.022 0.005,-0.0319 0.0226,-0.0609 0.0237,-0.0937 0.003,-0.0152 0.0214,-0.0377 0.008,-0.0454 -0.37138,-0.21775 -2.60423,-2.94012 -3.45578,-1.85735 -0.0158,0.008 -0.0321,0.0152 -0.0477,0.0234 -0.006,0.003 -0.0109,0.007 -0.0165,0.01 -0.0212,0.0109 -0.0205,0.009 -0.0451,0.0147 -0.0199,-2.6e-4 -0.0364,-0.002 -0.0555,0.003 -0.007,0.002 -0.0137,0.006 -0.0208,0.008 -0.006,0.002 -0.0124,0.002 -0.0184,0.003 -0.005,0.002 -0.009,0.005 -0.0143,0.007 -0.005,10e-4 -0.009,7e-5 -0.0141,10e-5 -0.0123,-10e-4 -0.0246,-0.003 -0.037,-0.003 -0.005,9e-5 -0.009,0.002 -0.0141,0.002 -0.005,-5.3e-4 -0.0317,-0.0168 -0.0374,-0.013 -0.003,-0.002 -0.006,-0.005 -0.01,-0.006 -0.0152,-0.006 -0.009,-7.9e-4 -0.022,-0.002 -0.004,-2.7e-4 -0.008,-0.002 -0.0127,-0.002 -0.0258,-0.002 0.004,0.007 -0.0337,-0.009 -0.0318,-0.0217 -0.0343,-0.0217 -0.0644,-0.0504 -0.0135,-0.0129 -0.055,-0.0494 -0.0389,-0.0401 1.06872,0.61459 2.13731,1.22953 3.19846,1.85709 0.009,0.005 -0.005,0.0205 -0.0117,0.0276 -0.003,0.003 -0.007,-0.003 -0.0108,-0.005 -0.003,-0.007 -0.007,-0.0147 -0.0101,-0.0224 -0.004,-0.0104 -0.0149,-0.0644 -0.0224,-0.0687 -1.09425,-0.63919 -2.19732,-1.26318 -3.29598,-1.89478 -0.007,0.003 -0.0142,0.007 -0.0218,0.008 -0.0113,0.003 -0.023,0.003 -0.0345,0.004 -0.0151,0.002 -0.0304,10e-4 -0.0452,0.005 -0.0168,0.004 -0.0575,0.0245 -0.0748,0.0305 -0.0303,0.0105 -0.0625,0.0151 -0.0931,0.0246 -0.009,0.002 -0.0179,0.003 -0.0269,0.005 -0.007,-0.001 -0.0142,-0.004 -0.0213,-0.003 -0.0252,0.002 -0.0264,0.008 -0.045,0.0219 -0.0238,0.0178 -0.0176,0.0132 -0.0439,0.028 -0.0528,0.0197 -0.0619,0.0174 -0.10576,0.0812 -0.0595,0.0866 -0.12715,0.18919 -0.13274,0.30027 -5.2e-4,0.0113 0.0309,0.0166 0.0366,0.018 0.0137,0.0102 0.0117,0.0102 0.026,0.0163 0.0137,0.006 0.0195,0.006 0.0312,0.0159 0.005,0.004 0.008,0.0118 0.0137,0.0152 0.005,0.003 0.0113,0.002 0.017,0.002 0.002,0.004 0.003,0.009 0.006,0.0116 0.003,0.003 0.007,0.002 0.0102,0.004 0.002,10e-4 0.002,0.004 0.003,0.005 0.003,0.002 0.007,0.003 0.009,0.006 0.003,0.004 0.003,0.009 0.006,0.0133 0.003,0.004 0.008,0.007 0.0117,0.01 0.0147,0.007 0.0152,0.006 0.0279,0.0189 0.006,0.006 0.01,0.0161 0.0176,0.0206 1.10371,0.63909 2.21041,1.27299 3.31562,1.90948 0.0163,-0.006 0.009,-0.006 0.0228,-0.002 0.005,-1.4e-4 0.0432,-0.001 0.0439,-0.001 0.0107,5.3e-4 0.0212,0.004 0.0319,0.004 0.0112,2.6e-4 0.0223,-0.002 0.0334,-0.002 0.0298,-0.002 0.0314,-10e-4 0.0596,-10e-4 0.0106,2.6e-4 0.0214,-0.001 0.0318,10e-4 0.0311,0.006 0.0542,0.0209 0.0817,0.0362 0.0436,0.0243 0.0874,0.0481 0.11871,0.0884 0.81487,0.9574 -4.26559,-2.64564 -3.27369,-1.87314 1.01407,0.78977 2.2245,1.28838 3.33675,1.93257 0.005,5.3e-4 0.01,5.3e-4 0.0146,0.002 0.006,0.002 0.0111,0.005 0.017,0.006 0.007,0.002 0.0147,0.002 0.022,0.003 0.006,0.009 0.002,0.006 0.015,0.0111 0.002,8e-4 0.0159,0.006 0.0184,0.007 0.0166,0.001 0.0239,-0.002 0.0405,-0.006 0.033,-0.001 0.003,0.002 0.0471,-0.0139 0.004,-0.002 0.009,-0.002 0.0138,-0.002 0.026,-0.005 0.0509,-0.008 0.0744,-0.0217 0.0363,-0.009 -0.004,0.002 0.0282,-0.0108 0.027,-0.0111 0.0577,-0.0128 0.0825,-0.0294 0.0506,-0.0199 -0.007,0.001 0.032,-0.01 0.007,-0.002 0.0126,-0.005 0.0192,-0.007 0.005,-0.001 0.009,-1.9e-4 0.0139,-8e-4 0.007,-7.9e-4 0.0131,-0.004 0.0196,-0.003 0.005,7.9e-4 0.009,0.005 0.013,0.008 0.007,-0.002 0.0138,-0.005 0.0209,-0.006 0.005,-0.001 0.0108,2.4e-4 0.0157,-0.002 0.0297,-0.0102 0.004,-0.0122 0.0404,-0.0203 0.002,-5.3e-4 -0.002,0.004 -0.003,0.006 2.6e-4,-1.6e-4 7.9e-4,-2.7e-4 0.001,-5.3e-4 0.0105,-0.0133 0.0206,-0.0241 0.0382,-0.0273 0.007,-0.001 0.0139,0.002 0.0202,-2.6e-4 0.007,-0.003 0.0121,-0.009 0.0182,-0.0136 0.005,-0.003 0.0344,-0.022 0.0412,-0.0246 0.0282,-0.0105 0.028,-5.3e-4 0.0606,-0.009 0.0111,-0.003 0.016,-0.0188 0.0272,-0.0211 0.0222,-0.0177 0.0235,-0.0216 0.0534,-0.0316 0.0305,-0.0102 0.0405,-0.006 0.0692,-0.0171 0.0398,-0.0149 0.0461,-0.0255 0.084,-0.0548 -6.26574,-4.0969 -3.01934,-3.43628 -3.32652,-2.11236 -10e-4,0.006 -0.003,0.0114 -0.006,0.0162 -0.006,0.008 -0.014,0.0145 -0.0199,0.0226 -0.0103,0.0143 -0.0133,0.0331 -0.0252,0.0464 -0.008,0.0172 -0.0156,0.0346 -0.024,0.0516 -0.004,0.008 -0.007,0.0176 -0.0128,0.0247 -0.0302,0.0356 -0.0882,0.0287 -0.12845,0.0373 z" /></g></svg>
