<svg width="37" height="37" viewBox="0 0 37 37" fill="none" xmlns="http://www.w3.org/2000/svg">
<mask id="mask0_638_7" style="mask-type:alpha" maskUnits="userSpaceOnUse" x="0" y="0" width="37" height="37">
<rect width="37" height="37" fill="#D9D9D9"/>
</mask>
<g mask="url(#mask0_638_7)">
<path d="M9.01876 26.3627C10.3292 25.3606 11.7938 24.5705 13.4125 23.9923C15.0313 23.4142 16.7271 23.1252 18.5 23.1252C20.2729 23.1252 21.9688 23.4142 23.5875 23.9923C25.2063 24.5705 26.6708 25.3606 27.9813 26.3627C28.8806 25.3092 29.5807 24.1144 30.0818 22.7783C30.5828 21.4422 30.8333 20.0161 30.8333 18.5002C30.8333 15.0828 29.6321 12.1729 27.2297 9.77048C24.8273 7.36804 21.9174 6.16683 18.5 6.16683C15.0826 6.16683 12.1728 7.36804 9.77032 9.77048C7.36789 12.1729 6.16668 15.0828 6.16668 18.5002C6.16668 20.0161 6.4172 21.4422 6.91824 22.7783C7.41928 24.1144 8.11946 25.3092 9.01876 26.3627ZM18.5 20.0418C16.984 20.0418 15.7057 19.5215 14.6651 18.4809C13.6245 17.4403 13.1042 16.162 13.1042 14.646C13.1042 13.13 13.6245 11.8517 14.6651 10.8111C15.7057 9.77048 16.984 9.25016 18.5 9.25016C20.016 9.25016 21.2943 9.77048 22.3349 10.8111C23.3755 11.8517 23.8958 13.13 23.8958 14.646C23.8958 16.162 23.3755 17.4403 22.3349 18.4809C21.2943 19.5215 20.016 20.0418 18.5 20.0418ZM18.5 33.9168C16.3674 33.9168 14.3632 33.5121 12.4875 32.7028C10.6118 31.8934 8.98022 30.795 7.59272 29.4075C6.20522 28.02 5.10678 26.3884 4.29741 24.5127C3.48803 22.637 3.08334 20.6328 3.08334 18.5002C3.08334 16.3675 3.48803 14.3634 4.29741 12.4877C5.10678 10.612 6.20522 8.98037 7.59272 7.59287C8.98022 6.20537 10.6118 5.10693 12.4875 4.29756C14.3632 3.48818 16.3674 3.0835 18.5 3.0835C20.6326 3.0835 22.6368 3.48818 24.5125 4.29756C26.3882 5.10693 28.0198 6.20537 29.4073 7.59287C30.7948 8.98037 31.8932 10.612 32.7026 12.4877C33.512 14.3634 33.9167 16.3675 33.9167 18.5002C33.9167 20.6328 33.512 22.637 32.7026 24.5127C31.8932 26.3884 30.7948 28.02 29.4073 29.4075C28.0198 30.795 26.3882 31.8934 24.5125 32.7028C22.6368 33.5121 20.6326 33.9168 18.5 33.9168ZM18.5 30.8335C19.8618 30.8335 21.1465 30.6344 22.3542 30.2361C23.5618 29.8378 24.6667 29.2661 25.6688 28.521C24.6667 27.7759 23.5618 27.2042 22.3542 26.8059C21.1465 26.4076 19.8618 26.2085 18.5 26.2085C17.1382 26.2085 15.8535 26.4076 14.6458 26.8059C13.4382 27.2042 12.3333 27.7759 11.3313 28.521C12.3333 29.2661 13.4382 29.8378 14.6458 30.2361C15.8535 30.6344 17.1382 30.8335 18.5 30.8335ZM18.5 16.9585C19.1681 16.9585 19.7205 16.7401 20.1573 16.3033C20.5941 15.8665 20.8125 15.3141 20.8125 14.646C20.8125 13.9779 20.5941 13.4255 20.1573 12.9887C19.7205 12.5519 19.1681 12.3335 18.5 12.3335C17.832 12.3335 17.2795 12.5519 16.8427 12.9887C16.4059 13.4255 16.1875 13.9779 16.1875 14.646C16.1875 15.3141 16.4059 15.8665 16.8427 16.3033C17.2795 16.7401 17.832 16.9585 18.5 16.9585Z" fill="#1C1B1F"/>
</g>
</svg>
