<svg width="58" height="58" viewBox="0 0 58 58" fill="none" xmlns="http://www.w3.org/2000/svg">
<path fill-rule="evenodd" clip-rule="evenodd" d="M53.1667 29.0002C53.1667 42.3469 42.3468 53.1668 29 53.1668C15.6532 53.1668 4.83337 42.3469 4.83337 29.0002C4.83337 15.6533 15.6532 4.8335 29 4.8335C42.3468 4.8335 53.1667 15.6533 53.1667 29.0002ZM29 18.7293C27.4986 18.7293 26.2813 19.9466 26.2813 21.4481C26.2813 22.4491 25.4698 23.2606 24.4688 23.2606C23.4678 23.2606 22.6563 22.4491 22.6563 21.4481C22.6563 17.9445 25.4966 15.1043 29 15.1043C32.5035 15.1043 35.3438 17.9445 35.3438 21.4481C35.3438 23.1659 34.6587 24.7275 33.5506 25.8682C33.3276 26.0975 33.1149 26.3102 32.9119 26.5129C32.3904 27.034 31.9334 27.4905 31.5325 28.0057C31.0032 28.6858 30.8125 29.1858 30.8125 29.6043V31.4168C30.8125 32.4178 30.001 33.2293 29 33.2293C27.9991 33.2293 27.1875 32.4178 27.1875 31.4168V29.6043C27.1875 28.0209 27.9246 26.7391 28.6719 25.7792C29.2245 25.069 29.9193 24.3754 30.4834 23.8127C30.6535 23.6429 30.8116 23.4851 30.9503 23.3422C31.4278 22.8508 31.7188 22.1853 31.7188 21.4481C31.7188 19.9466 30.5015 18.7293 29 18.7293ZM29 41.0835C30.3348 41.0835 31.4167 40.0016 31.4167 38.6668C31.4167 37.3321 30.3348 36.2502 29 36.2502C27.6653 36.2502 26.5834 37.3321 26.5834 38.6668C26.5834 40.0016 27.6653 41.0835 29 41.0835Z" fill="#1C274C"/>
</svg>
