<svg width="56" height="56" viewBox="0 0 56 56" fill="none" xmlns="http://www.w3.org/2000/svg">
<mask id="mask0_638_16" style="mask-type:alpha" maskUnits="userSpaceOnUse" x="0" y="0" width="56" height="56">
<rect x="23.8492" width="40" height="40" transform="rotate(36.6003 23.8492 0)" fill="#D9D9D9"/>
</mask>
<g mask="url(#mask0_638_16)">
<path d="M18.6539 29.3579C20.1257 30.451 21.7749 30.8627 23.6014 30.593C25.428 30.3233 26.8878 29.4525 27.9809 27.9807C29.074 26.5088 29.4856 24.8597 29.2159 23.0331C28.9462 21.2066 28.0755 19.7468 26.6036 18.6537C25.1318 17.5606 23.4826 17.1489 21.6561 17.4187C19.8296 17.6884 18.3698 18.5591 17.2767 20.031C16.1836 21.5028 15.7719 23.152 16.0416 24.9785C16.3113 26.805 17.1821 28.2648 18.6539 29.3579ZM16.6665 32.034C14.4364 30.3778 13.1206 28.1895 12.7189 25.4691C12.3172 22.7488 12.9444 20.2736 14.6006 18.0435C16.2568 15.8135 18.4451 14.4976 21.1655 14.0959C23.8858 13.6942 26.361 14.3215 28.5911 15.9777C30.5981 17.4682 31.8711 19.3998 32.41 21.7723C32.949 24.1448 32.6624 26.4058 31.5503 28.5555L42.3548 36.5798L40.3674 39.2558L29.5628 31.2316C27.8263 32.9176 25.7446 33.8454 23.3175 34.0152C20.8905 34.1849 18.6735 33.5245 16.6665 32.034Z" fill="white"/>
</g>
</svg>
