<svg width="45" height="48" viewBox="0 0 45 48" fill="none" xmlns="http://www.w3.org/2000/svg">
<path opacity="0.5" fill-rule="evenodd" clip-rule="evenodd" d="M5.625 28.5C6.40164 28.5 7.03125 29.1716 7.03125 30C7.03125 32.8708 7.03423 34.873 7.22466 36.3838C7.40963 37.8514 7.74797 38.6284 8.26689 39.182C8.78582 39.7356 9.51441 40.0964 10.8902 40.2938C12.3065 40.4968 14.1836 40.5 16.875 40.5H28.125C30.8164 40.5 32.6934 40.4968 34.1098 40.2938C35.4857 40.0964 36.2141 39.7356 36.7331 39.182C37.2521 38.6284 37.5904 37.8514 37.7754 36.3838C37.9658 34.873 37.9688 32.8708 37.9688 30C37.9688 29.1716 38.5984 28.5 39.375 28.5C40.1516 28.5 40.7812 29.1716 40.7812 30V30.1098C40.7812 32.845 40.7812 35.0496 40.5628 36.7836C40.3359 38.5838 39.8505 40.0994 38.7219 41.3032C37.5932 42.5072 36.1723 43.025 34.4846 43.267C32.859 43.5 30.7922 43.5 28.2279 43.5H16.7721C14.2079 43.5 12.141 43.5 10.5155 43.267C8.82776 43.025 7.40676 42.5072 6.27816 41.3034C5.14956 40.0994 4.66414 38.5838 4.43723 36.7836C4.21868 35.0496 4.21871 32.845 4.21875 30.1098C4.21875 30.0732 4.21875 30.0366 4.21875 30C4.21875 29.1716 4.84836 28.5 5.625 28.5Z" fill="#1C274C"/>
<path fill-rule="evenodd" clip-rule="evenodd" d="M22.5 4.5C22.8949 4.5 23.2714 4.67704 23.5378 4.98784L31.0378 13.7378C31.5619 14.3492 31.5221 15.298 30.9489 15.857C30.3758 16.416 29.4863 16.3736 28.9622 15.7622L23.9063 9.8636V32C23.9063 32.8284 23.2766 33.5 22.5 33.5C21.7234 33.5 21.0938 32.8284 21.0938 32V9.8636L16.0379 15.7622C15.5138 16.3736 14.6243 16.416 14.0511 15.857C13.4779 15.298 13.4381 14.3492 13.9622 13.7378L21.4622 4.98784C21.7286 4.67704 22.1051 4.5 22.5 4.5Z" fill="#1C274C"/>
</svg>
